%TF.GenerationSoftware,KiCad,Pcbnew,9.0.7*%
%TF.CreationDate,2026-02-18T17:04:35-08:00*%
%TF.ProjectId,inverter,696e7665-7274-4657-922e-6b696361645f,rev?*%
%TF.SameCoordinates,Original*%
%TF.FileFunction,Legend,Top*%
%TF.FilePolarity,Positive*%
%FSLAX46Y46*%
G04 Gerber Fmt 4.6, Leading zero omitted, Abs format (unit mm)*
G04 Created by KiCad (PCBNEW 9.0.7) date 2026-02-18 17:04:35*
%MOMM*%
%LPD*%
G01*
G04 APERTURE LIST*
%ADD10C,0.280000*%
%ADD11C,0.187500*%
%ADD12C,0.125000*%
%ADD13C,0.150000*%
%ADD14C,0.120000*%
%ADD15C,0.152400*%
G04 APERTURE END LIST*
D10*
X151269924Y-90726344D02*
X152136590Y-90726344D01*
X152136590Y-90726344D02*
X151269924Y-92026344D01*
X151269924Y-92026344D02*
X152136590Y-92026344D01*
X152631828Y-92026344D02*
X152631828Y-91159678D01*
X152631828Y-90726344D02*
X152569924Y-90788249D01*
X152569924Y-90788249D02*
X152631828Y-90850154D01*
X152631828Y-90850154D02*
X152693733Y-90788249D01*
X152693733Y-90788249D02*
X152631828Y-90726344D01*
X152631828Y-90726344D02*
X152631828Y-90850154D01*
X153127067Y-91159678D02*
X153436591Y-92026344D01*
X153436591Y-92026344D02*
X153746114Y-91159678D01*
X155665162Y-91345392D02*
X155850876Y-91407297D01*
X155850876Y-91407297D02*
X155912781Y-91469201D01*
X155912781Y-91469201D02*
X155974685Y-91593011D01*
X155974685Y-91593011D02*
X155974685Y-91778725D01*
X155974685Y-91778725D02*
X155912781Y-91902535D01*
X155912781Y-91902535D02*
X155850876Y-91964440D01*
X155850876Y-91964440D02*
X155727066Y-92026344D01*
X155727066Y-92026344D02*
X155231828Y-92026344D01*
X155231828Y-92026344D02*
X155231828Y-90726344D01*
X155231828Y-90726344D02*
X155665162Y-90726344D01*
X155665162Y-90726344D02*
X155788971Y-90788249D01*
X155788971Y-90788249D02*
X155850876Y-90850154D01*
X155850876Y-90850154D02*
X155912781Y-90973963D01*
X155912781Y-90973963D02*
X155912781Y-91097773D01*
X155912781Y-91097773D02*
X155850876Y-91221582D01*
X155850876Y-91221582D02*
X155788971Y-91283487D01*
X155788971Y-91283487D02*
X155665162Y-91345392D01*
X155665162Y-91345392D02*
X155231828Y-91345392D01*
X157027066Y-91964440D02*
X156903257Y-92026344D01*
X156903257Y-92026344D02*
X156655638Y-92026344D01*
X156655638Y-92026344D02*
X156531828Y-91964440D01*
X156531828Y-91964440D02*
X156469924Y-91840630D01*
X156469924Y-91840630D02*
X156469924Y-91345392D01*
X156469924Y-91345392D02*
X156531828Y-91221582D01*
X156531828Y-91221582D02*
X156655638Y-91159678D01*
X156655638Y-91159678D02*
X156903257Y-91159678D01*
X156903257Y-91159678D02*
X157027066Y-91221582D01*
X157027066Y-91221582D02*
X157088971Y-91345392D01*
X157088971Y-91345392D02*
X157088971Y-91469201D01*
X157088971Y-91469201D02*
X156469924Y-91593011D01*
X157646114Y-92026344D02*
X157646114Y-90726344D01*
X158203257Y-92026344D02*
X158203257Y-91345392D01*
X158203257Y-91345392D02*
X158141352Y-91221582D01*
X158141352Y-91221582D02*
X158017543Y-91159678D01*
X158017543Y-91159678D02*
X157831829Y-91159678D01*
X157831829Y-91159678D02*
X157708019Y-91221582D01*
X157708019Y-91221582D02*
X157646114Y-91283487D01*
X159379447Y-92026344D02*
X159379447Y-91345392D01*
X159379447Y-91345392D02*
X159317542Y-91221582D01*
X159317542Y-91221582D02*
X159193733Y-91159678D01*
X159193733Y-91159678D02*
X158946114Y-91159678D01*
X158946114Y-91159678D02*
X158822304Y-91221582D01*
X159379447Y-91964440D02*
X159255638Y-92026344D01*
X159255638Y-92026344D02*
X158946114Y-92026344D01*
X158946114Y-92026344D02*
X158822304Y-91964440D01*
X158822304Y-91964440D02*
X158760400Y-91840630D01*
X158760400Y-91840630D02*
X158760400Y-91716820D01*
X158760400Y-91716820D02*
X158822304Y-91593011D01*
X158822304Y-91593011D02*
X158946114Y-91531106D01*
X158946114Y-91531106D02*
X159255638Y-91531106D01*
X159255638Y-91531106D02*
X159379447Y-91469201D01*
X159998494Y-92026344D02*
X159998494Y-91159678D01*
X159998494Y-91407297D02*
X160060399Y-91283487D01*
X160060399Y-91283487D02*
X160122304Y-91221582D01*
X160122304Y-91221582D02*
X160246113Y-91159678D01*
X160246113Y-91159678D02*
X160369923Y-91159678D01*
D11*
X140266212Y-89392345D02*
X140342402Y-89392345D01*
X140342402Y-89392345D02*
X140418593Y-89430440D01*
X140418593Y-89430440D02*
X140456688Y-89468535D01*
X140456688Y-89468535D02*
X140494783Y-89544726D01*
X140494783Y-89544726D02*
X140532878Y-89697107D01*
X140532878Y-89697107D02*
X140532878Y-89887583D01*
X140532878Y-89887583D02*
X140494783Y-90039964D01*
X140494783Y-90039964D02*
X140456688Y-90116154D01*
X140456688Y-90116154D02*
X140418593Y-90154250D01*
X140418593Y-90154250D02*
X140342402Y-90192345D01*
X140342402Y-90192345D02*
X140266212Y-90192345D01*
X140266212Y-90192345D02*
X140190021Y-90154250D01*
X140190021Y-90154250D02*
X140151926Y-90116154D01*
X140151926Y-90116154D02*
X140113831Y-90039964D01*
X140113831Y-90039964D02*
X140075735Y-89887583D01*
X140075735Y-89887583D02*
X140075735Y-89697107D01*
X140075735Y-89697107D02*
X140113831Y-89544726D01*
X140113831Y-89544726D02*
X140151926Y-89468535D01*
X140151926Y-89468535D02*
X140190021Y-89430440D01*
X140190021Y-89430440D02*
X140266212Y-89392345D01*
X140837640Y-89468535D02*
X140875736Y-89430440D01*
X140875736Y-89430440D02*
X140951926Y-89392345D01*
X140951926Y-89392345D02*
X141142402Y-89392345D01*
X141142402Y-89392345D02*
X141218593Y-89430440D01*
X141218593Y-89430440D02*
X141256688Y-89468535D01*
X141256688Y-89468535D02*
X141294783Y-89544726D01*
X141294783Y-89544726D02*
X141294783Y-89620916D01*
X141294783Y-89620916D02*
X141256688Y-89735202D01*
X141256688Y-89735202D02*
X140799545Y-90192345D01*
X140799545Y-90192345D02*
X141294783Y-90192345D01*
X142209069Y-89354250D02*
X141523355Y-90382821D01*
X142894783Y-90192345D02*
X142437640Y-90192345D01*
X142666212Y-90192345D02*
X142666212Y-89392345D01*
X142666212Y-89392345D02*
X142590021Y-89506630D01*
X142590021Y-89506630D02*
X142513831Y-89582821D01*
X142513831Y-89582821D02*
X142437640Y-89620916D01*
X143351926Y-89735202D02*
X143275736Y-89697107D01*
X143275736Y-89697107D02*
X143237641Y-89659011D01*
X143237641Y-89659011D02*
X143199545Y-89582821D01*
X143199545Y-89582821D02*
X143199545Y-89544726D01*
X143199545Y-89544726D02*
X143237641Y-89468535D01*
X143237641Y-89468535D02*
X143275736Y-89430440D01*
X143275736Y-89430440D02*
X143351926Y-89392345D01*
X143351926Y-89392345D02*
X143504307Y-89392345D01*
X143504307Y-89392345D02*
X143580498Y-89430440D01*
X143580498Y-89430440D02*
X143618593Y-89468535D01*
X143618593Y-89468535D02*
X143656688Y-89544726D01*
X143656688Y-89544726D02*
X143656688Y-89582821D01*
X143656688Y-89582821D02*
X143618593Y-89659011D01*
X143618593Y-89659011D02*
X143580498Y-89697107D01*
X143580498Y-89697107D02*
X143504307Y-89735202D01*
X143504307Y-89735202D02*
X143351926Y-89735202D01*
X143351926Y-89735202D02*
X143275736Y-89773297D01*
X143275736Y-89773297D02*
X143237641Y-89811392D01*
X143237641Y-89811392D02*
X143199545Y-89887583D01*
X143199545Y-89887583D02*
X143199545Y-90039964D01*
X143199545Y-90039964D02*
X143237641Y-90116154D01*
X143237641Y-90116154D02*
X143275736Y-90154250D01*
X143275736Y-90154250D02*
X143351926Y-90192345D01*
X143351926Y-90192345D02*
X143504307Y-90192345D01*
X143504307Y-90192345D02*
X143580498Y-90154250D01*
X143580498Y-90154250D02*
X143618593Y-90116154D01*
X143618593Y-90116154D02*
X143656688Y-90039964D01*
X143656688Y-90039964D02*
X143656688Y-89887583D01*
X143656688Y-89887583D02*
X143618593Y-89811392D01*
X143618593Y-89811392D02*
X143580498Y-89773297D01*
X143580498Y-89773297D02*
X143504307Y-89735202D01*
X144570974Y-89354250D02*
X143885260Y-90382821D01*
X144799545Y-89468535D02*
X144837641Y-89430440D01*
X144837641Y-89430440D02*
X144913831Y-89392345D01*
X144913831Y-89392345D02*
X145104307Y-89392345D01*
X145104307Y-89392345D02*
X145180498Y-89430440D01*
X145180498Y-89430440D02*
X145218593Y-89468535D01*
X145218593Y-89468535D02*
X145256688Y-89544726D01*
X145256688Y-89544726D02*
X145256688Y-89620916D01*
X145256688Y-89620916D02*
X145218593Y-89735202D01*
X145218593Y-89735202D02*
X144761450Y-90192345D01*
X144761450Y-90192345D02*
X145256688Y-90192345D01*
X145751927Y-89392345D02*
X145828117Y-89392345D01*
X145828117Y-89392345D02*
X145904308Y-89430440D01*
X145904308Y-89430440D02*
X145942403Y-89468535D01*
X145942403Y-89468535D02*
X145980498Y-89544726D01*
X145980498Y-89544726D02*
X146018593Y-89697107D01*
X146018593Y-89697107D02*
X146018593Y-89887583D01*
X146018593Y-89887583D02*
X145980498Y-90039964D01*
X145980498Y-90039964D02*
X145942403Y-90116154D01*
X145942403Y-90116154D02*
X145904308Y-90154250D01*
X145904308Y-90154250D02*
X145828117Y-90192345D01*
X145828117Y-90192345D02*
X145751927Y-90192345D01*
X145751927Y-90192345D02*
X145675736Y-90154250D01*
X145675736Y-90154250D02*
X145637641Y-90116154D01*
X145637641Y-90116154D02*
X145599546Y-90039964D01*
X145599546Y-90039964D02*
X145561450Y-89887583D01*
X145561450Y-89887583D02*
X145561450Y-89697107D01*
X145561450Y-89697107D02*
X145599546Y-89544726D01*
X145599546Y-89544726D02*
X145637641Y-89468535D01*
X145637641Y-89468535D02*
X145675736Y-89430440D01*
X145675736Y-89430440D02*
X145751927Y-89392345D01*
X146323355Y-89468535D02*
X146361451Y-89430440D01*
X146361451Y-89430440D02*
X146437641Y-89392345D01*
X146437641Y-89392345D02*
X146628117Y-89392345D01*
X146628117Y-89392345D02*
X146704308Y-89430440D01*
X146704308Y-89430440D02*
X146742403Y-89468535D01*
X146742403Y-89468535D02*
X146780498Y-89544726D01*
X146780498Y-89544726D02*
X146780498Y-89620916D01*
X146780498Y-89620916D02*
X146742403Y-89735202D01*
X146742403Y-89735202D02*
X146285260Y-90192345D01*
X146285260Y-90192345D02*
X146780498Y-90192345D01*
X147466213Y-89392345D02*
X147313832Y-89392345D01*
X147313832Y-89392345D02*
X147237641Y-89430440D01*
X147237641Y-89430440D02*
X147199546Y-89468535D01*
X147199546Y-89468535D02*
X147123356Y-89582821D01*
X147123356Y-89582821D02*
X147085260Y-89735202D01*
X147085260Y-89735202D02*
X147085260Y-90039964D01*
X147085260Y-90039964D02*
X147123356Y-90116154D01*
X147123356Y-90116154D02*
X147161451Y-90154250D01*
X147161451Y-90154250D02*
X147237641Y-90192345D01*
X147237641Y-90192345D02*
X147390022Y-90192345D01*
X147390022Y-90192345D02*
X147466213Y-90154250D01*
X147466213Y-90154250D02*
X147504308Y-90116154D01*
X147504308Y-90116154D02*
X147542403Y-90039964D01*
X147542403Y-90039964D02*
X147542403Y-89849488D01*
X147542403Y-89849488D02*
X147504308Y-89773297D01*
X147504308Y-89773297D02*
X147466213Y-89735202D01*
X147466213Y-89735202D02*
X147390022Y-89697107D01*
X147390022Y-89697107D02*
X147237641Y-89697107D01*
X147237641Y-89697107D02*
X147161451Y-89735202D01*
X147161451Y-89735202D02*
X147123356Y-89773297D01*
X147123356Y-89773297D02*
X147085260Y-89849488D01*
X148875737Y-90192345D02*
X148494785Y-90192345D01*
X148494785Y-90192345D02*
X148494785Y-89392345D01*
X149142404Y-90192345D02*
X149142404Y-89659011D01*
X149142404Y-89392345D02*
X149104308Y-89430440D01*
X149104308Y-89430440D02*
X149142404Y-89468535D01*
X149142404Y-89468535D02*
X149180499Y-89430440D01*
X149180499Y-89430440D02*
X149142404Y-89392345D01*
X149142404Y-89392345D02*
X149142404Y-89468535D01*
X149447165Y-89659011D02*
X149599546Y-90192345D01*
X149599546Y-90192345D02*
X149751927Y-89811392D01*
X149751927Y-89811392D02*
X149904308Y-90192345D01*
X149904308Y-90192345D02*
X150056689Y-89659011D01*
X150666213Y-90154250D02*
X150590022Y-90192345D01*
X150590022Y-90192345D02*
X150437641Y-90192345D01*
X150437641Y-90192345D02*
X150361451Y-90154250D01*
X150361451Y-90154250D02*
X150323355Y-90078059D01*
X150323355Y-90078059D02*
X150323355Y-89773297D01*
X150323355Y-89773297D02*
X150361451Y-89697107D01*
X150361451Y-89697107D02*
X150437641Y-89659011D01*
X150437641Y-89659011D02*
X150590022Y-89659011D01*
X150590022Y-89659011D02*
X150666213Y-89697107D01*
X150666213Y-89697107D02*
X150704308Y-89773297D01*
X150704308Y-89773297D02*
X150704308Y-89849488D01*
X150704308Y-89849488D02*
X150323355Y-89925678D01*
X151047165Y-90192345D02*
X151047165Y-89659011D01*
X151047165Y-89392345D02*
X151009069Y-89430440D01*
X151009069Y-89430440D02*
X151047165Y-89468535D01*
X151047165Y-89468535D02*
X151085260Y-89430440D01*
X151085260Y-89430440D02*
X151047165Y-89392345D01*
X151047165Y-89392345D02*
X151047165Y-89468535D01*
X152418593Y-90192345D02*
X152037641Y-90192345D01*
X152037641Y-90192345D02*
X152037641Y-89392345D01*
X152685260Y-90192345D02*
X152685260Y-89659011D01*
X152685260Y-89392345D02*
X152647164Y-89430440D01*
X152647164Y-89430440D02*
X152685260Y-89468535D01*
X152685260Y-89468535D02*
X152723355Y-89430440D01*
X152723355Y-89430440D02*
X152685260Y-89392345D01*
X152685260Y-89392345D02*
X152685260Y-89468535D01*
X153066212Y-89659011D02*
X153066212Y-90192345D01*
X153066212Y-89735202D02*
X153104307Y-89697107D01*
X153104307Y-89697107D02*
X153180497Y-89659011D01*
X153180497Y-89659011D02*
X153294783Y-89659011D01*
X153294783Y-89659011D02*
X153370974Y-89697107D01*
X153370974Y-89697107D02*
X153409069Y-89773297D01*
X153409069Y-89773297D02*
X153409069Y-90192345D01*
X154780498Y-90192345D02*
X154399546Y-90192345D01*
X154399546Y-90192345D02*
X154399546Y-89392345D01*
X155390022Y-90192345D02*
X155390022Y-89773297D01*
X155390022Y-89773297D02*
X155351927Y-89697107D01*
X155351927Y-89697107D02*
X155275736Y-89659011D01*
X155275736Y-89659011D02*
X155123355Y-89659011D01*
X155123355Y-89659011D02*
X155047165Y-89697107D01*
X155390022Y-90154250D02*
X155313831Y-90192345D01*
X155313831Y-90192345D02*
X155123355Y-90192345D01*
X155123355Y-90192345D02*
X155047165Y-90154250D01*
X155047165Y-90154250D02*
X155009069Y-90078059D01*
X155009069Y-90078059D02*
X155009069Y-90001869D01*
X155009069Y-90001869D02*
X155047165Y-89925678D01*
X155047165Y-89925678D02*
X155123355Y-89887583D01*
X155123355Y-89887583D02*
X155313831Y-89887583D01*
X155313831Y-89887583D02*
X155390022Y-89849488D01*
X155770975Y-90192345D02*
X155770975Y-89392345D01*
X155770975Y-89697107D02*
X155847165Y-89659011D01*
X155847165Y-89659011D02*
X155999546Y-89659011D01*
X155999546Y-89659011D02*
X156075737Y-89697107D01*
X156075737Y-89697107D02*
X156113832Y-89735202D01*
X156113832Y-89735202D02*
X156151927Y-89811392D01*
X156151927Y-89811392D02*
X156151927Y-90039964D01*
X156151927Y-90039964D02*
X156113832Y-90116154D01*
X156113832Y-90116154D02*
X156075737Y-90154250D01*
X156075737Y-90154250D02*
X155999546Y-90192345D01*
X155999546Y-90192345D02*
X155847165Y-90192345D01*
X155847165Y-90192345D02*
X155770975Y-90154250D01*
D12*
X149366667Y-100587404D02*
X149328571Y-100625500D01*
X149328571Y-100625500D02*
X149214286Y-100663595D01*
X149214286Y-100663595D02*
X149138095Y-100663595D01*
X149138095Y-100663595D02*
X149023809Y-100625500D01*
X149023809Y-100625500D02*
X148947619Y-100549309D01*
X148947619Y-100549309D02*
X148909524Y-100473119D01*
X148909524Y-100473119D02*
X148871428Y-100320738D01*
X148871428Y-100320738D02*
X148871428Y-100206452D01*
X148871428Y-100206452D02*
X148909524Y-100054071D01*
X148909524Y-100054071D02*
X148947619Y-99977880D01*
X148947619Y-99977880D02*
X149023809Y-99901690D01*
X149023809Y-99901690D02*
X149138095Y-99863595D01*
X149138095Y-99863595D02*
X149214286Y-99863595D01*
X149214286Y-99863595D02*
X149328571Y-99901690D01*
X149328571Y-99901690D02*
X149366667Y-99939785D01*
X150090476Y-99863595D02*
X149709524Y-99863595D01*
X149709524Y-99863595D02*
X149671428Y-100244547D01*
X149671428Y-100244547D02*
X149709524Y-100206452D01*
X149709524Y-100206452D02*
X149785714Y-100168357D01*
X149785714Y-100168357D02*
X149976190Y-100168357D01*
X149976190Y-100168357D02*
X150052381Y-100206452D01*
X150052381Y-100206452D02*
X150090476Y-100244547D01*
X150090476Y-100244547D02*
X150128571Y-100320738D01*
X150128571Y-100320738D02*
X150128571Y-100511214D01*
X150128571Y-100511214D02*
X150090476Y-100587404D01*
X150090476Y-100587404D02*
X150052381Y-100625500D01*
X150052381Y-100625500D02*
X149976190Y-100663595D01*
X149976190Y-100663595D02*
X149785714Y-100663595D01*
X149785714Y-100663595D02*
X149709524Y-100625500D01*
X149709524Y-100625500D02*
X149671428Y-100587404D01*
X145866667Y-93587404D02*
X145828571Y-93625500D01*
X145828571Y-93625500D02*
X145714286Y-93663595D01*
X145714286Y-93663595D02*
X145638095Y-93663595D01*
X145638095Y-93663595D02*
X145523809Y-93625500D01*
X145523809Y-93625500D02*
X145447619Y-93549309D01*
X145447619Y-93549309D02*
X145409524Y-93473119D01*
X145409524Y-93473119D02*
X145371428Y-93320738D01*
X145371428Y-93320738D02*
X145371428Y-93206452D01*
X145371428Y-93206452D02*
X145409524Y-93054071D01*
X145409524Y-93054071D02*
X145447619Y-92977880D01*
X145447619Y-92977880D02*
X145523809Y-92901690D01*
X145523809Y-92901690D02*
X145638095Y-92863595D01*
X145638095Y-92863595D02*
X145714286Y-92863595D01*
X145714286Y-92863595D02*
X145828571Y-92901690D01*
X145828571Y-92901690D02*
X145866667Y-92939785D01*
X146552381Y-92863595D02*
X146400000Y-92863595D01*
X146400000Y-92863595D02*
X146323809Y-92901690D01*
X146323809Y-92901690D02*
X146285714Y-92939785D01*
X146285714Y-92939785D02*
X146209524Y-93054071D01*
X146209524Y-93054071D02*
X146171428Y-93206452D01*
X146171428Y-93206452D02*
X146171428Y-93511214D01*
X146171428Y-93511214D02*
X146209524Y-93587404D01*
X146209524Y-93587404D02*
X146247619Y-93625500D01*
X146247619Y-93625500D02*
X146323809Y-93663595D01*
X146323809Y-93663595D02*
X146476190Y-93663595D01*
X146476190Y-93663595D02*
X146552381Y-93625500D01*
X146552381Y-93625500D02*
X146590476Y-93587404D01*
X146590476Y-93587404D02*
X146628571Y-93511214D01*
X146628571Y-93511214D02*
X146628571Y-93320738D01*
X146628571Y-93320738D02*
X146590476Y-93244547D01*
X146590476Y-93244547D02*
X146552381Y-93206452D01*
X146552381Y-93206452D02*
X146476190Y-93168357D01*
X146476190Y-93168357D02*
X146323809Y-93168357D01*
X146323809Y-93168357D02*
X146247619Y-93206452D01*
X146247619Y-93206452D02*
X146209524Y-93244547D01*
X146209524Y-93244547D02*
X146171428Y-93320738D01*
X140966667Y-100687404D02*
X140928571Y-100725500D01*
X140928571Y-100725500D02*
X140814286Y-100763595D01*
X140814286Y-100763595D02*
X140738095Y-100763595D01*
X140738095Y-100763595D02*
X140623809Y-100725500D01*
X140623809Y-100725500D02*
X140547619Y-100649309D01*
X140547619Y-100649309D02*
X140509524Y-100573119D01*
X140509524Y-100573119D02*
X140471428Y-100420738D01*
X140471428Y-100420738D02*
X140471428Y-100306452D01*
X140471428Y-100306452D02*
X140509524Y-100154071D01*
X140509524Y-100154071D02*
X140547619Y-100077880D01*
X140547619Y-100077880D02*
X140623809Y-100001690D01*
X140623809Y-100001690D02*
X140738095Y-99963595D01*
X140738095Y-99963595D02*
X140814286Y-99963595D01*
X140814286Y-99963595D02*
X140928571Y-100001690D01*
X140928571Y-100001690D02*
X140966667Y-100039785D01*
X141233333Y-99963595D02*
X141766667Y-99963595D01*
X141766667Y-99963595D02*
X141423809Y-100763595D01*
D13*
X144490476Y-99962295D02*
X144490476Y-100609914D01*
X144490476Y-100609914D02*
X144528571Y-100686104D01*
X144528571Y-100686104D02*
X144566666Y-100724200D01*
X144566666Y-100724200D02*
X144642857Y-100762295D01*
X144642857Y-100762295D02*
X144795238Y-100762295D01*
X144795238Y-100762295D02*
X144871428Y-100724200D01*
X144871428Y-100724200D02*
X144909523Y-100686104D01*
X144909523Y-100686104D02*
X144947619Y-100609914D01*
X144947619Y-100609914D02*
X144947619Y-99962295D01*
X145290475Y-100038485D02*
X145328571Y-100000390D01*
X145328571Y-100000390D02*
X145404761Y-99962295D01*
X145404761Y-99962295D02*
X145595237Y-99962295D01*
X145595237Y-99962295D02*
X145671428Y-100000390D01*
X145671428Y-100000390D02*
X145709523Y-100038485D01*
X145709523Y-100038485D02*
X145747618Y-100114676D01*
X145747618Y-100114676D02*
X145747618Y-100190866D01*
X145747618Y-100190866D02*
X145709523Y-100305152D01*
X145709523Y-100305152D02*
X145252380Y-100762295D01*
X145252380Y-100762295D02*
X145747618Y-100762295D01*
D12*
X152066667Y-93387404D02*
X152028571Y-93425500D01*
X152028571Y-93425500D02*
X151914286Y-93463595D01*
X151914286Y-93463595D02*
X151838095Y-93463595D01*
X151838095Y-93463595D02*
X151723809Y-93425500D01*
X151723809Y-93425500D02*
X151647619Y-93349309D01*
X151647619Y-93349309D02*
X151609524Y-93273119D01*
X151609524Y-93273119D02*
X151571428Y-93120738D01*
X151571428Y-93120738D02*
X151571428Y-93006452D01*
X151571428Y-93006452D02*
X151609524Y-92854071D01*
X151609524Y-92854071D02*
X151647619Y-92777880D01*
X151647619Y-92777880D02*
X151723809Y-92701690D01*
X151723809Y-92701690D02*
X151838095Y-92663595D01*
X151838095Y-92663595D02*
X151914286Y-92663595D01*
X151914286Y-92663595D02*
X152028571Y-92701690D01*
X152028571Y-92701690D02*
X152066667Y-92739785D01*
X152333333Y-92663595D02*
X152828571Y-92663595D01*
X152828571Y-92663595D02*
X152561905Y-92968357D01*
X152561905Y-92968357D02*
X152676190Y-92968357D01*
X152676190Y-92968357D02*
X152752381Y-93006452D01*
X152752381Y-93006452D02*
X152790476Y-93044547D01*
X152790476Y-93044547D02*
X152828571Y-93120738D01*
X152828571Y-93120738D02*
X152828571Y-93311214D01*
X152828571Y-93311214D02*
X152790476Y-93387404D01*
X152790476Y-93387404D02*
X152752381Y-93425500D01*
X152752381Y-93425500D02*
X152676190Y-93463595D01*
X152676190Y-93463595D02*
X152447619Y-93463595D01*
X152447619Y-93463595D02*
X152371428Y-93425500D01*
X152371428Y-93425500D02*
X152333333Y-93387404D01*
D13*
X157962295Y-96633332D02*
X157581342Y-96899999D01*
X157962295Y-97090475D02*
X157162295Y-97090475D01*
X157162295Y-97090475D02*
X157162295Y-96785713D01*
X157162295Y-96785713D02*
X157200390Y-96709523D01*
X157200390Y-96709523D02*
X157238485Y-96671428D01*
X157238485Y-96671428D02*
X157314676Y-96633332D01*
X157314676Y-96633332D02*
X157428961Y-96633332D01*
X157428961Y-96633332D02*
X157505152Y-96671428D01*
X157505152Y-96671428D02*
X157543247Y-96709523D01*
X157543247Y-96709523D02*
X157581342Y-96785713D01*
X157581342Y-96785713D02*
X157581342Y-97090475D01*
X157962295Y-95871428D02*
X157962295Y-96328571D01*
X157962295Y-96099999D02*
X157162295Y-96099999D01*
X157162295Y-96099999D02*
X157276580Y-96176190D01*
X157276580Y-96176190D02*
X157352771Y-96252380D01*
X157352771Y-96252380D02*
X157390866Y-96328571D01*
D12*
X160558833Y-96109523D02*
X160558833Y-95500000D01*
X160863595Y-94700000D02*
X160863595Y-95157143D01*
X160863595Y-94928571D02*
X160063595Y-94928571D01*
X160063595Y-94928571D02*
X160177880Y-95004762D01*
X160177880Y-95004762D02*
X160254071Y-95080952D01*
X160254071Y-95080952D02*
X160292166Y-95157143D01*
X160063595Y-93976190D02*
X160063595Y-94357142D01*
X160063595Y-94357142D02*
X160444547Y-94395238D01*
X160444547Y-94395238D02*
X160406452Y-94357142D01*
X160406452Y-94357142D02*
X160368357Y-94280952D01*
X160368357Y-94280952D02*
X160368357Y-94090476D01*
X160368357Y-94090476D02*
X160406452Y-94014285D01*
X160406452Y-94014285D02*
X160444547Y-93976190D01*
X160444547Y-93976190D02*
X160520738Y-93938095D01*
X160520738Y-93938095D02*
X160711214Y-93938095D01*
X160711214Y-93938095D02*
X160787404Y-93976190D01*
X160787404Y-93976190D02*
X160825500Y-94014285D01*
X160825500Y-94014285D02*
X160863595Y-94090476D01*
X160863595Y-94090476D02*
X160863595Y-94280952D01*
X160863595Y-94280952D02*
X160825500Y-94357142D01*
X160825500Y-94357142D02*
X160787404Y-94395238D01*
X160063595Y-93709523D02*
X160863595Y-93442856D01*
X160863595Y-93442856D02*
X160063595Y-93176190D01*
D13*
X148790476Y-95400390D02*
X148714286Y-95362295D01*
X148714286Y-95362295D02*
X148600000Y-95362295D01*
X148600000Y-95362295D02*
X148485714Y-95400390D01*
X148485714Y-95400390D02*
X148409524Y-95476580D01*
X148409524Y-95476580D02*
X148371429Y-95552771D01*
X148371429Y-95552771D02*
X148333333Y-95705152D01*
X148333333Y-95705152D02*
X148333333Y-95819438D01*
X148333333Y-95819438D02*
X148371429Y-95971819D01*
X148371429Y-95971819D02*
X148409524Y-96048009D01*
X148409524Y-96048009D02*
X148485714Y-96124200D01*
X148485714Y-96124200D02*
X148600000Y-96162295D01*
X148600000Y-96162295D02*
X148676191Y-96162295D01*
X148676191Y-96162295D02*
X148790476Y-96124200D01*
X148790476Y-96124200D02*
X148828572Y-96086104D01*
X148828572Y-96086104D02*
X148828572Y-95819438D01*
X148828572Y-95819438D02*
X148676191Y-95819438D01*
X149171429Y-96162295D02*
X149171429Y-95362295D01*
X149171429Y-95362295D02*
X149628572Y-96162295D01*
X149628572Y-96162295D02*
X149628572Y-95362295D01*
X150009524Y-96162295D02*
X150009524Y-95362295D01*
X150009524Y-95362295D02*
X150200000Y-95362295D01*
X150200000Y-95362295D02*
X150314286Y-95400390D01*
X150314286Y-95400390D02*
X150390476Y-95476580D01*
X150390476Y-95476580D02*
X150428571Y-95552771D01*
X150428571Y-95552771D02*
X150466667Y-95705152D01*
X150466667Y-95705152D02*
X150466667Y-95819438D01*
X150466667Y-95819438D02*
X150428571Y-95971819D01*
X150428571Y-95971819D02*
X150390476Y-96048009D01*
X150390476Y-96048009D02*
X150314286Y-96124200D01*
X150314286Y-96124200D02*
X150200000Y-96162295D01*
X150200000Y-96162295D02*
X150009524Y-96162295D01*
D12*
X145671429Y-92358833D02*
X146280953Y-92358833D01*
X145976191Y-92663595D02*
X145976191Y-92054071D01*
X147042857Y-91863595D02*
X146661905Y-91863595D01*
X146661905Y-91863595D02*
X146623809Y-92244547D01*
X146623809Y-92244547D02*
X146661905Y-92206452D01*
X146661905Y-92206452D02*
X146738095Y-92168357D01*
X146738095Y-92168357D02*
X146928571Y-92168357D01*
X146928571Y-92168357D02*
X147004762Y-92206452D01*
X147004762Y-92206452D02*
X147042857Y-92244547D01*
X147042857Y-92244547D02*
X147080952Y-92320738D01*
X147080952Y-92320738D02*
X147080952Y-92511214D01*
X147080952Y-92511214D02*
X147042857Y-92587404D01*
X147042857Y-92587404D02*
X147004762Y-92625500D01*
X147004762Y-92625500D02*
X146928571Y-92663595D01*
X146928571Y-92663595D02*
X146738095Y-92663595D01*
X146738095Y-92663595D02*
X146661905Y-92625500D01*
X146661905Y-92625500D02*
X146623809Y-92587404D01*
X147309524Y-91863595D02*
X147576191Y-92663595D01*
X147576191Y-92663595D02*
X147842857Y-91863595D01*
X139990476Y-94058833D02*
X140600000Y-94058833D01*
X140295238Y-94363595D02*
X140295238Y-93754071D01*
X141399999Y-94363595D02*
X140942856Y-94363595D01*
X141171428Y-94363595D02*
X141171428Y-93563595D01*
X141171428Y-93563595D02*
X141095237Y-93677880D01*
X141095237Y-93677880D02*
X141019047Y-93754071D01*
X141019047Y-93754071D02*
X140942856Y-93792166D01*
X142123809Y-93563595D02*
X141742857Y-93563595D01*
X141742857Y-93563595D02*
X141704761Y-93944547D01*
X141704761Y-93944547D02*
X141742857Y-93906452D01*
X141742857Y-93906452D02*
X141819047Y-93868357D01*
X141819047Y-93868357D02*
X142009523Y-93868357D01*
X142009523Y-93868357D02*
X142085714Y-93906452D01*
X142085714Y-93906452D02*
X142123809Y-93944547D01*
X142123809Y-93944547D02*
X142161904Y-94020738D01*
X142161904Y-94020738D02*
X142161904Y-94211214D01*
X142161904Y-94211214D02*
X142123809Y-94287404D01*
X142123809Y-94287404D02*
X142085714Y-94325500D01*
X142085714Y-94325500D02*
X142009523Y-94363595D01*
X142009523Y-94363595D02*
X141819047Y-94363595D01*
X141819047Y-94363595D02*
X141742857Y-94325500D01*
X141742857Y-94325500D02*
X141704761Y-94287404D01*
X142390476Y-93563595D02*
X142657143Y-94363595D01*
X142657143Y-94363595D02*
X142923809Y-93563595D01*
D13*
X150162295Y-97409523D02*
X150809914Y-97409523D01*
X150809914Y-97409523D02*
X150886104Y-97371428D01*
X150886104Y-97371428D02*
X150924200Y-97333333D01*
X150924200Y-97333333D02*
X150962295Y-97257142D01*
X150962295Y-97257142D02*
X150962295Y-97104761D01*
X150962295Y-97104761D02*
X150924200Y-97028571D01*
X150924200Y-97028571D02*
X150886104Y-96990476D01*
X150886104Y-96990476D02*
X150809914Y-96952380D01*
X150809914Y-96952380D02*
X150162295Y-96952380D01*
X150962295Y-96152381D02*
X150962295Y-96609524D01*
X150962295Y-96380952D02*
X150162295Y-96380952D01*
X150162295Y-96380952D02*
X150276580Y-96457143D01*
X150276580Y-96457143D02*
X150352771Y-96533333D01*
X150352771Y-96533333D02*
X150390866Y-96609524D01*
D12*
X151966667Y-100787404D02*
X151928571Y-100825500D01*
X151928571Y-100825500D02*
X151814286Y-100863595D01*
X151814286Y-100863595D02*
X151738095Y-100863595D01*
X151738095Y-100863595D02*
X151623809Y-100825500D01*
X151623809Y-100825500D02*
X151547619Y-100749309D01*
X151547619Y-100749309D02*
X151509524Y-100673119D01*
X151509524Y-100673119D02*
X151471428Y-100520738D01*
X151471428Y-100520738D02*
X151471428Y-100406452D01*
X151471428Y-100406452D02*
X151509524Y-100254071D01*
X151509524Y-100254071D02*
X151547619Y-100177880D01*
X151547619Y-100177880D02*
X151623809Y-100101690D01*
X151623809Y-100101690D02*
X151738095Y-100063595D01*
X151738095Y-100063595D02*
X151814286Y-100063595D01*
X151814286Y-100063595D02*
X151928571Y-100101690D01*
X151928571Y-100101690D02*
X151966667Y-100139785D01*
X152271428Y-100139785D02*
X152309524Y-100101690D01*
X152309524Y-100101690D02*
X152385714Y-100063595D01*
X152385714Y-100063595D02*
X152576190Y-100063595D01*
X152576190Y-100063595D02*
X152652381Y-100101690D01*
X152652381Y-100101690D02*
X152690476Y-100139785D01*
X152690476Y-100139785D02*
X152728571Y-100215976D01*
X152728571Y-100215976D02*
X152728571Y-100292166D01*
X152728571Y-100292166D02*
X152690476Y-100406452D01*
X152690476Y-100406452D02*
X152233333Y-100863595D01*
X152233333Y-100863595D02*
X152728571Y-100863595D01*
D13*
X159262295Y-96633332D02*
X158881342Y-96899999D01*
X159262295Y-97090475D02*
X158462295Y-97090475D01*
X158462295Y-97090475D02*
X158462295Y-96785713D01*
X158462295Y-96785713D02*
X158500390Y-96709523D01*
X158500390Y-96709523D02*
X158538485Y-96671428D01*
X158538485Y-96671428D02*
X158614676Y-96633332D01*
X158614676Y-96633332D02*
X158728961Y-96633332D01*
X158728961Y-96633332D02*
X158805152Y-96671428D01*
X158805152Y-96671428D02*
X158843247Y-96709523D01*
X158843247Y-96709523D02*
X158881342Y-96785713D01*
X158881342Y-96785713D02*
X158881342Y-97090475D01*
X158538485Y-96328571D02*
X158500390Y-96290475D01*
X158500390Y-96290475D02*
X158462295Y-96214285D01*
X158462295Y-96214285D02*
X158462295Y-96023809D01*
X158462295Y-96023809D02*
X158500390Y-95947618D01*
X158500390Y-95947618D02*
X158538485Y-95909523D01*
X158538485Y-95909523D02*
X158614676Y-95871428D01*
X158614676Y-95871428D02*
X158690866Y-95871428D01*
X158690866Y-95871428D02*
X158805152Y-95909523D01*
X158805152Y-95909523D02*
X159262295Y-96366666D01*
X159262295Y-96366666D02*
X159262295Y-95871428D01*
D12*
X155366667Y-100587404D02*
X155328571Y-100625500D01*
X155328571Y-100625500D02*
X155214286Y-100663595D01*
X155214286Y-100663595D02*
X155138095Y-100663595D01*
X155138095Y-100663595D02*
X155023809Y-100625500D01*
X155023809Y-100625500D02*
X154947619Y-100549309D01*
X154947619Y-100549309D02*
X154909524Y-100473119D01*
X154909524Y-100473119D02*
X154871428Y-100320738D01*
X154871428Y-100320738D02*
X154871428Y-100206452D01*
X154871428Y-100206452D02*
X154909524Y-100054071D01*
X154909524Y-100054071D02*
X154947619Y-99977880D01*
X154947619Y-99977880D02*
X155023809Y-99901690D01*
X155023809Y-99901690D02*
X155138095Y-99863595D01*
X155138095Y-99863595D02*
X155214286Y-99863595D01*
X155214286Y-99863595D02*
X155328571Y-99901690D01*
X155328571Y-99901690D02*
X155366667Y-99939785D01*
X156052381Y-100130261D02*
X156052381Y-100663595D01*
X155861905Y-99825500D02*
X155671428Y-100396928D01*
X155671428Y-100396928D02*
X156166667Y-100396928D01*
D13*
X160657533Y-100128570D02*
X160657533Y-99519047D01*
X160162295Y-98757142D02*
X160162295Y-99138094D01*
X160162295Y-99138094D02*
X160543247Y-99176190D01*
X160543247Y-99176190D02*
X160505152Y-99138094D01*
X160505152Y-99138094D02*
X160467057Y-99061904D01*
X160467057Y-99061904D02*
X160467057Y-98871428D01*
X160467057Y-98871428D02*
X160505152Y-98795237D01*
X160505152Y-98795237D02*
X160543247Y-98757142D01*
X160543247Y-98757142D02*
X160619438Y-98719047D01*
X160619438Y-98719047D02*
X160809914Y-98719047D01*
X160809914Y-98719047D02*
X160886104Y-98757142D01*
X160886104Y-98757142D02*
X160924200Y-98795237D01*
X160924200Y-98795237D02*
X160962295Y-98871428D01*
X160962295Y-98871428D02*
X160962295Y-99061904D01*
X160962295Y-99061904D02*
X160924200Y-99138094D01*
X160924200Y-99138094D02*
X160886104Y-99176190D01*
X160162295Y-98490475D02*
X160962295Y-98223808D01*
X160962295Y-98223808D02*
X160162295Y-97957142D01*
D12*
X155366667Y-93487404D02*
X155328571Y-93525500D01*
X155328571Y-93525500D02*
X155214286Y-93563595D01*
X155214286Y-93563595D02*
X155138095Y-93563595D01*
X155138095Y-93563595D02*
X155023809Y-93525500D01*
X155023809Y-93525500D02*
X154947619Y-93449309D01*
X154947619Y-93449309D02*
X154909524Y-93373119D01*
X154909524Y-93373119D02*
X154871428Y-93220738D01*
X154871428Y-93220738D02*
X154871428Y-93106452D01*
X154871428Y-93106452D02*
X154909524Y-92954071D01*
X154909524Y-92954071D02*
X154947619Y-92877880D01*
X154947619Y-92877880D02*
X155023809Y-92801690D01*
X155023809Y-92801690D02*
X155138095Y-92763595D01*
X155138095Y-92763595D02*
X155214286Y-92763595D01*
X155214286Y-92763595D02*
X155328571Y-92801690D01*
X155328571Y-92801690D02*
X155366667Y-92839785D01*
X156128571Y-93563595D02*
X155671428Y-93563595D01*
X155900000Y-93563595D02*
X155900000Y-92763595D01*
X155900000Y-92763595D02*
X155823809Y-92877880D01*
X155823809Y-92877880D02*
X155747619Y-92954071D01*
X155747619Y-92954071D02*
X155671428Y-92992166D01*
D14*
%TO.C,C5*%
X148990000Y-98346267D02*
X148990000Y-98053733D01*
X150010000Y-98346267D02*
X150010000Y-98053733D01*
%TO.C,C6*%
X144829733Y-93866000D02*
X145122267Y-93866000D01*
X144829733Y-94886000D02*
X145122267Y-94886000D01*
%TO.C,C7*%
X140590000Y-98146267D02*
X140590000Y-97853733D01*
X141610000Y-98146267D02*
X141610000Y-97853733D01*
D15*
%TO.C,U2*%
X143399600Y-99760400D02*
X146752400Y-99760400D01*
X146752400Y-95391600D02*
X143399600Y-95391600D01*
D14*
%TO.C,C3*%
X152053733Y-93890000D02*
X152346267Y-93890000D01*
X152053733Y-94910000D02*
X152346267Y-94910000D01*
%TO.C,R1*%
X154077500Y-96512742D02*
X154077500Y-96987258D01*
X155122500Y-96512742D02*
X155122500Y-96987258D01*
%TO.C,-15V*%
X159650000Y-94300000D02*
G75*
G02*
X157750000Y-94300000I-950000J0D01*
G01*
X157750000Y-94300000D02*
G75*
G02*
X159650000Y-94300000I950000J0D01*
G01*
%TO.C,GND*%
X150150000Y-94100000D02*
G75*
G02*
X148250000Y-94100000I-950000J0D01*
G01*
X148250000Y-94100000D02*
G75*
G02*
X150150000Y-94100000I950000J0D01*
G01*
%TO.C,+5V*%
X145350000Y-92100000D02*
G75*
G02*
X143450000Y-92100000I-950000J0D01*
G01*
X143450000Y-92100000D02*
G75*
G02*
X145350000Y-92100000I950000J0D01*
G01*
%TO.C,+15V*%
X142550000Y-92200000D02*
G75*
G02*
X140650000Y-92200000I-950000J0D01*
G01*
X140650000Y-92200000D02*
G75*
G02*
X142550000Y-92200000I950000J0D01*
G01*
%TO.C,U1*%
X151410000Y-97760000D02*
X151410000Y-95760000D01*
X153690000Y-97750000D02*
X153690000Y-95750000D01*
X151480000Y-98400000D02*
X151200000Y-98120000D01*
X151480000Y-98120000D01*
X151480000Y-98400000D01*
G36*
X151480000Y-98400000D02*
G01*
X151200000Y-98120000D01*
X151480000Y-98120000D01*
X151480000Y-98400000D01*
G37*
%TO.C,C2*%
X152346267Y-98590000D02*
X152053733Y-98590000D01*
X152346267Y-99610000D02*
X152053733Y-99610000D01*
%TO.C,R2*%
X155577500Y-96512742D02*
X155577500Y-96987258D01*
X156622500Y-96512742D02*
X156622500Y-96987258D01*
%TO.C,C4*%
X155353733Y-98490000D02*
X155646267Y-98490000D01*
X155353733Y-99510000D02*
X155646267Y-99510000D01*
%TO.C,-5V*%
X159750000Y-98900000D02*
G75*
G02*
X157850000Y-98900000I-950000J0D01*
G01*
X157850000Y-98900000D02*
G75*
G02*
X159750000Y-98900000I950000J0D01*
G01*
%TO.C,C1*%
X155353733Y-93990000D02*
X155646267Y-93990000D01*
X155353733Y-95010000D02*
X155646267Y-95010000D01*
%TD*%
M02*
