%TF.GenerationSoftware,KiCad,Pcbnew,9.0.7*%
%TF.CreationDate,2026-02-18T17:04:35-08:00*%
%TF.ProjectId,inverter,696e7665-7274-4657-922e-6b696361645f,rev?*%
%TF.SameCoordinates,Original*%
%TF.FileFunction,Legend,Bot*%
%TF.FilePolarity,Positive*%
%FSLAX46Y46*%
G04 Gerber Fmt 4.6, Leading zero omitted, Abs format (unit mm)*
G04 Created by KiCad (PCBNEW 9.0.7) date 2026-02-18 17:04:35*
%MOMM*%
%LPD*%
G01*
G04 APERTURE LIST*
%ADD10C,0.250000*%
%ADD11C,0.500000*%
G04 APERTURE END LIST*
D10*
X160106955Y-90264619D02*
X160011717Y-90264619D01*
X160011717Y-90264619D02*
X159916479Y-90312238D01*
X159916479Y-90312238D02*
X159868860Y-90359857D01*
X159868860Y-90359857D02*
X159821241Y-90455095D01*
X159821241Y-90455095D02*
X159773622Y-90645571D01*
X159773622Y-90645571D02*
X159773622Y-90883666D01*
X159773622Y-90883666D02*
X159821241Y-91074142D01*
X159821241Y-91074142D02*
X159868860Y-91169380D01*
X159868860Y-91169380D02*
X159916479Y-91217000D01*
X159916479Y-91217000D02*
X160011717Y-91264619D01*
X160011717Y-91264619D02*
X160106955Y-91264619D01*
X160106955Y-91264619D02*
X160202193Y-91217000D01*
X160202193Y-91217000D02*
X160249812Y-91169380D01*
X160249812Y-91169380D02*
X160297431Y-91074142D01*
X160297431Y-91074142D02*
X160345050Y-90883666D01*
X160345050Y-90883666D02*
X160345050Y-90645571D01*
X160345050Y-90645571D02*
X160297431Y-90455095D01*
X160297431Y-90455095D02*
X160249812Y-90359857D01*
X160249812Y-90359857D02*
X160202193Y-90312238D01*
X160202193Y-90312238D02*
X160106955Y-90264619D01*
X159392669Y-90359857D02*
X159345050Y-90312238D01*
X159345050Y-90312238D02*
X159249812Y-90264619D01*
X159249812Y-90264619D02*
X159011717Y-90264619D01*
X159011717Y-90264619D02*
X158916479Y-90312238D01*
X158916479Y-90312238D02*
X158868860Y-90359857D01*
X158868860Y-90359857D02*
X158821241Y-90455095D01*
X158821241Y-90455095D02*
X158821241Y-90550333D01*
X158821241Y-90550333D02*
X158868860Y-90693190D01*
X158868860Y-90693190D02*
X159440288Y-91264619D01*
X159440288Y-91264619D02*
X158821241Y-91264619D01*
X157678384Y-90217000D02*
X158535526Y-91502714D01*
X156821241Y-91264619D02*
X157392669Y-91264619D01*
X157106955Y-91264619D02*
X157106955Y-90264619D01*
X157106955Y-90264619D02*
X157202193Y-90407476D01*
X157202193Y-90407476D02*
X157297431Y-90502714D01*
X157297431Y-90502714D02*
X157392669Y-90550333D01*
X156249812Y-90693190D02*
X156345050Y-90645571D01*
X156345050Y-90645571D02*
X156392669Y-90597952D01*
X156392669Y-90597952D02*
X156440288Y-90502714D01*
X156440288Y-90502714D02*
X156440288Y-90455095D01*
X156440288Y-90455095D02*
X156392669Y-90359857D01*
X156392669Y-90359857D02*
X156345050Y-90312238D01*
X156345050Y-90312238D02*
X156249812Y-90264619D01*
X156249812Y-90264619D02*
X156059336Y-90264619D01*
X156059336Y-90264619D02*
X155964098Y-90312238D01*
X155964098Y-90312238D02*
X155916479Y-90359857D01*
X155916479Y-90359857D02*
X155868860Y-90455095D01*
X155868860Y-90455095D02*
X155868860Y-90502714D01*
X155868860Y-90502714D02*
X155916479Y-90597952D01*
X155916479Y-90597952D02*
X155964098Y-90645571D01*
X155964098Y-90645571D02*
X156059336Y-90693190D01*
X156059336Y-90693190D02*
X156249812Y-90693190D01*
X156249812Y-90693190D02*
X156345050Y-90740809D01*
X156345050Y-90740809D02*
X156392669Y-90788428D01*
X156392669Y-90788428D02*
X156440288Y-90883666D01*
X156440288Y-90883666D02*
X156440288Y-91074142D01*
X156440288Y-91074142D02*
X156392669Y-91169380D01*
X156392669Y-91169380D02*
X156345050Y-91217000D01*
X156345050Y-91217000D02*
X156249812Y-91264619D01*
X156249812Y-91264619D02*
X156059336Y-91264619D01*
X156059336Y-91264619D02*
X155964098Y-91217000D01*
X155964098Y-91217000D02*
X155916479Y-91169380D01*
X155916479Y-91169380D02*
X155868860Y-91074142D01*
X155868860Y-91074142D02*
X155868860Y-90883666D01*
X155868860Y-90883666D02*
X155916479Y-90788428D01*
X155916479Y-90788428D02*
X155964098Y-90740809D01*
X155964098Y-90740809D02*
X156059336Y-90693190D01*
X154726003Y-90217000D02*
X155583145Y-91502714D01*
X154440288Y-90359857D02*
X154392669Y-90312238D01*
X154392669Y-90312238D02*
X154297431Y-90264619D01*
X154297431Y-90264619D02*
X154059336Y-90264619D01*
X154059336Y-90264619D02*
X153964098Y-90312238D01*
X153964098Y-90312238D02*
X153916479Y-90359857D01*
X153916479Y-90359857D02*
X153868860Y-90455095D01*
X153868860Y-90455095D02*
X153868860Y-90550333D01*
X153868860Y-90550333D02*
X153916479Y-90693190D01*
X153916479Y-90693190D02*
X154487907Y-91264619D01*
X154487907Y-91264619D02*
X153868860Y-91264619D01*
X153249812Y-90264619D02*
X153154574Y-90264619D01*
X153154574Y-90264619D02*
X153059336Y-90312238D01*
X153059336Y-90312238D02*
X153011717Y-90359857D01*
X153011717Y-90359857D02*
X152964098Y-90455095D01*
X152964098Y-90455095D02*
X152916479Y-90645571D01*
X152916479Y-90645571D02*
X152916479Y-90883666D01*
X152916479Y-90883666D02*
X152964098Y-91074142D01*
X152964098Y-91074142D02*
X153011717Y-91169380D01*
X153011717Y-91169380D02*
X153059336Y-91217000D01*
X153059336Y-91217000D02*
X153154574Y-91264619D01*
X153154574Y-91264619D02*
X153249812Y-91264619D01*
X153249812Y-91264619D02*
X153345050Y-91217000D01*
X153345050Y-91217000D02*
X153392669Y-91169380D01*
X153392669Y-91169380D02*
X153440288Y-91074142D01*
X153440288Y-91074142D02*
X153487907Y-90883666D01*
X153487907Y-90883666D02*
X153487907Y-90645571D01*
X153487907Y-90645571D02*
X153440288Y-90455095D01*
X153440288Y-90455095D02*
X153392669Y-90359857D01*
X153392669Y-90359857D02*
X153345050Y-90312238D01*
X153345050Y-90312238D02*
X153249812Y-90264619D01*
X152535526Y-90359857D02*
X152487907Y-90312238D01*
X152487907Y-90312238D02*
X152392669Y-90264619D01*
X152392669Y-90264619D02*
X152154574Y-90264619D01*
X152154574Y-90264619D02*
X152059336Y-90312238D01*
X152059336Y-90312238D02*
X152011717Y-90359857D01*
X152011717Y-90359857D02*
X151964098Y-90455095D01*
X151964098Y-90455095D02*
X151964098Y-90550333D01*
X151964098Y-90550333D02*
X152011717Y-90693190D01*
X152011717Y-90693190D02*
X152583145Y-91264619D01*
X152583145Y-91264619D02*
X151964098Y-91264619D01*
X151106955Y-90264619D02*
X151297431Y-90264619D01*
X151297431Y-90264619D02*
X151392669Y-90312238D01*
X151392669Y-90312238D02*
X151440288Y-90359857D01*
X151440288Y-90359857D02*
X151535526Y-90502714D01*
X151535526Y-90502714D02*
X151583145Y-90693190D01*
X151583145Y-90693190D02*
X151583145Y-91074142D01*
X151583145Y-91074142D02*
X151535526Y-91169380D01*
X151535526Y-91169380D02*
X151487907Y-91217000D01*
X151487907Y-91217000D02*
X151392669Y-91264619D01*
X151392669Y-91264619D02*
X151202193Y-91264619D01*
X151202193Y-91264619D02*
X151106955Y-91217000D01*
X151106955Y-91217000D02*
X151059336Y-91169380D01*
X151059336Y-91169380D02*
X151011717Y-91074142D01*
X151011717Y-91074142D02*
X151011717Y-90836047D01*
X151011717Y-90836047D02*
X151059336Y-90740809D01*
X151059336Y-90740809D02*
X151106955Y-90693190D01*
X151106955Y-90693190D02*
X151202193Y-90645571D01*
X151202193Y-90645571D02*
X151392669Y-90645571D01*
X151392669Y-90645571D02*
X151487907Y-90693190D01*
X151487907Y-90693190D02*
X151535526Y-90740809D01*
X151535526Y-90740809D02*
X151583145Y-90836047D01*
X149345050Y-91264619D02*
X149821240Y-91264619D01*
X149821240Y-91264619D02*
X149821240Y-90264619D01*
X149011716Y-91264619D02*
X149011716Y-90597952D01*
X149011716Y-90264619D02*
X149059335Y-90312238D01*
X149059335Y-90312238D02*
X149011716Y-90359857D01*
X149011716Y-90359857D02*
X148964097Y-90312238D01*
X148964097Y-90312238D02*
X149011716Y-90264619D01*
X149011716Y-90264619D02*
X149011716Y-90359857D01*
X148630764Y-90597952D02*
X148440288Y-91264619D01*
X148440288Y-91264619D02*
X148249812Y-90788428D01*
X148249812Y-90788428D02*
X148059336Y-91264619D01*
X148059336Y-91264619D02*
X147868860Y-90597952D01*
X147106955Y-91217000D02*
X147202193Y-91264619D01*
X147202193Y-91264619D02*
X147392669Y-91264619D01*
X147392669Y-91264619D02*
X147487907Y-91217000D01*
X147487907Y-91217000D02*
X147535526Y-91121761D01*
X147535526Y-91121761D02*
X147535526Y-90740809D01*
X147535526Y-90740809D02*
X147487907Y-90645571D01*
X147487907Y-90645571D02*
X147392669Y-90597952D01*
X147392669Y-90597952D02*
X147202193Y-90597952D01*
X147202193Y-90597952D02*
X147106955Y-90645571D01*
X147106955Y-90645571D02*
X147059336Y-90740809D01*
X147059336Y-90740809D02*
X147059336Y-90836047D01*
X147059336Y-90836047D02*
X147535526Y-90931285D01*
X146630764Y-91264619D02*
X146630764Y-90597952D01*
X146630764Y-90264619D02*
X146678383Y-90312238D01*
X146678383Y-90312238D02*
X146630764Y-90359857D01*
X146630764Y-90359857D02*
X146583145Y-90312238D01*
X146583145Y-90312238D02*
X146630764Y-90264619D01*
X146630764Y-90264619D02*
X146630764Y-90359857D01*
X144916479Y-91264619D02*
X145392669Y-91264619D01*
X145392669Y-91264619D02*
X145392669Y-90264619D01*
X144583145Y-91264619D02*
X144583145Y-90597952D01*
X144583145Y-90264619D02*
X144630764Y-90312238D01*
X144630764Y-90312238D02*
X144583145Y-90359857D01*
X144583145Y-90359857D02*
X144535526Y-90312238D01*
X144535526Y-90312238D02*
X144583145Y-90264619D01*
X144583145Y-90264619D02*
X144583145Y-90359857D01*
X144106955Y-90597952D02*
X144106955Y-91264619D01*
X144106955Y-90693190D02*
X144059336Y-90645571D01*
X144059336Y-90645571D02*
X143964098Y-90597952D01*
X143964098Y-90597952D02*
X143821241Y-90597952D01*
X143821241Y-90597952D02*
X143726003Y-90645571D01*
X143726003Y-90645571D02*
X143678384Y-90740809D01*
X143678384Y-90740809D02*
X143678384Y-91264619D01*
X141964098Y-91264619D02*
X142440288Y-91264619D01*
X142440288Y-91264619D02*
X142440288Y-90264619D01*
X141202193Y-91264619D02*
X141202193Y-90740809D01*
X141202193Y-90740809D02*
X141249812Y-90645571D01*
X141249812Y-90645571D02*
X141345050Y-90597952D01*
X141345050Y-90597952D02*
X141535526Y-90597952D01*
X141535526Y-90597952D02*
X141630764Y-90645571D01*
X141202193Y-91217000D02*
X141297431Y-91264619D01*
X141297431Y-91264619D02*
X141535526Y-91264619D01*
X141535526Y-91264619D02*
X141630764Y-91217000D01*
X141630764Y-91217000D02*
X141678383Y-91121761D01*
X141678383Y-91121761D02*
X141678383Y-91026523D01*
X141678383Y-91026523D02*
X141630764Y-90931285D01*
X141630764Y-90931285D02*
X141535526Y-90883666D01*
X141535526Y-90883666D02*
X141297431Y-90883666D01*
X141297431Y-90883666D02*
X141202193Y-90836047D01*
X140726002Y-91264619D02*
X140726002Y-90264619D01*
X140726002Y-90645571D02*
X140630764Y-90597952D01*
X140630764Y-90597952D02*
X140440288Y-90597952D01*
X140440288Y-90597952D02*
X140345050Y-90645571D01*
X140345050Y-90645571D02*
X140297431Y-90693190D01*
X140297431Y-90693190D02*
X140249812Y-90788428D01*
X140249812Y-90788428D02*
X140249812Y-91074142D01*
X140249812Y-91074142D02*
X140297431Y-91169380D01*
X140297431Y-91169380D02*
X140345050Y-91217000D01*
X140345050Y-91217000D02*
X140440288Y-91264619D01*
X140440288Y-91264619D02*
X140630764Y-91264619D01*
X140630764Y-91264619D02*
X140726002Y-91217000D01*
D11*
X158899624Y-93255809D02*
X157166291Y-93255809D01*
X157166291Y-93255809D02*
X158899624Y-95855809D01*
X158899624Y-95855809D02*
X157166291Y-95855809D01*
X156175815Y-95855809D02*
X156175815Y-94122476D01*
X156175815Y-93255809D02*
X156299624Y-93379619D01*
X156299624Y-93379619D02*
X156175815Y-93503428D01*
X156175815Y-93503428D02*
X156052005Y-93379619D01*
X156052005Y-93379619D02*
X156175815Y-93255809D01*
X156175815Y-93255809D02*
X156175815Y-93503428D01*
X155185339Y-94122476D02*
X154566291Y-95855809D01*
X154566291Y-95855809D02*
X153947244Y-94122476D01*
X150109149Y-94493904D02*
X149737721Y-94617714D01*
X149737721Y-94617714D02*
X149613911Y-94741523D01*
X149613911Y-94741523D02*
X149490102Y-94989142D01*
X149490102Y-94989142D02*
X149490102Y-95360571D01*
X149490102Y-95360571D02*
X149613911Y-95608190D01*
X149613911Y-95608190D02*
X149737721Y-95732000D01*
X149737721Y-95732000D02*
X149985340Y-95855809D01*
X149985340Y-95855809D02*
X150975816Y-95855809D01*
X150975816Y-95855809D02*
X150975816Y-93255809D01*
X150975816Y-93255809D02*
X150109149Y-93255809D01*
X150109149Y-93255809D02*
X149861530Y-93379619D01*
X149861530Y-93379619D02*
X149737721Y-93503428D01*
X149737721Y-93503428D02*
X149613911Y-93751047D01*
X149613911Y-93751047D02*
X149613911Y-93998666D01*
X149613911Y-93998666D02*
X149737721Y-94246285D01*
X149737721Y-94246285D02*
X149861530Y-94370095D01*
X149861530Y-94370095D02*
X150109149Y-94493904D01*
X150109149Y-94493904D02*
X150975816Y-94493904D01*
X147385340Y-95732000D02*
X147632959Y-95855809D01*
X147632959Y-95855809D02*
X148128197Y-95855809D01*
X148128197Y-95855809D02*
X148375816Y-95732000D01*
X148375816Y-95732000D02*
X148499625Y-95484380D01*
X148499625Y-95484380D02*
X148499625Y-94493904D01*
X148499625Y-94493904D02*
X148375816Y-94246285D01*
X148375816Y-94246285D02*
X148128197Y-94122476D01*
X148128197Y-94122476D02*
X147632959Y-94122476D01*
X147632959Y-94122476D02*
X147385340Y-94246285D01*
X147385340Y-94246285D02*
X147261530Y-94493904D01*
X147261530Y-94493904D02*
X147261530Y-94741523D01*
X147261530Y-94741523D02*
X148499625Y-94989142D01*
X146147245Y-95855809D02*
X146147245Y-93255809D01*
X145032959Y-95855809D02*
X145032959Y-94493904D01*
X145032959Y-94493904D02*
X145156769Y-94246285D01*
X145156769Y-94246285D02*
X145404388Y-94122476D01*
X145404388Y-94122476D02*
X145775816Y-94122476D01*
X145775816Y-94122476D02*
X146023435Y-94246285D01*
X146023435Y-94246285D02*
X146147245Y-94370095D01*
X142680578Y-95855809D02*
X142680578Y-94493904D01*
X142680578Y-94493904D02*
X142804388Y-94246285D01*
X142804388Y-94246285D02*
X143052007Y-94122476D01*
X143052007Y-94122476D02*
X143547245Y-94122476D01*
X143547245Y-94122476D02*
X143794864Y-94246285D01*
X142680578Y-95732000D02*
X142928197Y-95855809D01*
X142928197Y-95855809D02*
X143547245Y-95855809D01*
X143547245Y-95855809D02*
X143794864Y-95732000D01*
X143794864Y-95732000D02*
X143918673Y-95484380D01*
X143918673Y-95484380D02*
X143918673Y-95236761D01*
X143918673Y-95236761D02*
X143794864Y-94989142D01*
X143794864Y-94989142D02*
X143547245Y-94865333D01*
X143547245Y-94865333D02*
X142928197Y-94865333D01*
X142928197Y-94865333D02*
X142680578Y-94741523D01*
X141442483Y-95855809D02*
X141442483Y-94122476D01*
X141442483Y-94617714D02*
X141318673Y-94370095D01*
X141318673Y-94370095D02*
X141194864Y-94246285D01*
X141194864Y-94246285D02*
X140947245Y-94122476D01*
X140947245Y-94122476D02*
X140699626Y-94122476D01*
M02*
