%TF.GenerationSoftware,KiCad,Pcbnew,9.0.7*%
%TF.CreationDate,2026-02-18T17:04:01-08:00*%
%TF.ProjectId,inverter,696e7665-7274-4657-922e-6b696361645f,rev?*%
%TF.SameCoordinates,Original*%
%TF.FileFunction,Copper,L2,Bot*%
%TF.FilePolarity,Positive*%
%FSLAX46Y46*%
G04 Gerber Fmt 4.6, Leading zero omitted, Abs format (unit mm)*
G04 Created by KiCad (PCBNEW 9.0.7) date 2026-02-18 17:04:01*
%MOMM*%
%LPD*%
G01*
G04 APERTURE LIST*
%TA.AperFunction,ViaPad*%
%ADD10C,0.800000*%
%TD*%
%TA.AperFunction,ViaPad*%
%ADD11C,0.600000*%
%TD*%
%TA.AperFunction,Conductor*%
%ADD12C,0.500000*%
%TD*%
G04 APERTURE END LIST*
D10*
%TO.N,Net-(U2-VOUT)*%
X156900000Y-93300000D03*
X149500000Y-97337500D03*
D11*
%TO.N,GND*%
X140000000Y-100200000D03*
X139800000Y-98500000D03*
X140000000Y-91500000D03*
X140000000Y-94800000D03*
X143000000Y-93400000D03*
X146400000Y-91100000D03*
X148600000Y-91100000D03*
X151400000Y-92900000D03*
X157500000Y-95500000D03*
X142900000Y-91100000D03*
X159800000Y-97300000D03*
X160200000Y-96400000D03*
X160200000Y-100200000D03*
X158500000Y-92500000D03*
X157500000Y-97600000D03*
X154000000Y-100200000D03*
X145900000Y-93100000D03*
X152000000Y-100200000D03*
X142600000Y-100200000D03*
X144100000Y-100200000D03*
X146200000Y-100200000D03*
X147200000Y-100100000D03*
X148500000Y-100200000D03*
X147700000Y-93300000D03*
X150400000Y-100200000D03*
%TD*%
D12*
%TO.N,Net-(U2-VOUT)*%
X156900000Y-93300000D02*
X153537500Y-93300000D01*
X153537500Y-93300000D02*
X149500000Y-97337500D01*
%TD*%
%TA.AperFunction,Conductor*%
%TO.N,GND*%
G36*
X161042539Y-88920185D02*
G01*
X161088294Y-88972989D01*
X161099500Y-89024500D01*
X161099500Y-101175500D01*
X161079815Y-101242539D01*
X161027011Y-101288294D01*
X160975500Y-101299500D01*
X139624500Y-101299500D01*
X139557461Y-101279815D01*
X139511706Y-101227011D01*
X139500500Y-101175500D01*
X139500500Y-97248804D01*
X148599500Y-97248804D01*
X148599500Y-97426195D01*
X148634103Y-97600158D01*
X148634106Y-97600167D01*
X148701983Y-97764040D01*
X148701990Y-97764053D01*
X148800535Y-97911534D01*
X148800538Y-97911538D01*
X148925961Y-98036961D01*
X148925965Y-98036964D01*
X149073446Y-98135509D01*
X149073459Y-98135516D01*
X149196363Y-98186423D01*
X149237334Y-98203394D01*
X149237336Y-98203394D01*
X149237341Y-98203396D01*
X149411304Y-98237999D01*
X149411307Y-98238000D01*
X149411309Y-98238000D01*
X149588693Y-98238000D01*
X149588694Y-98237999D01*
X149646682Y-98226464D01*
X149762658Y-98203396D01*
X149762661Y-98203394D01*
X149762666Y-98203394D01*
X149926547Y-98135513D01*
X150074035Y-98036964D01*
X150199464Y-97911535D01*
X150298013Y-97764047D01*
X150365894Y-97600166D01*
X150375240Y-97553178D01*
X150407624Y-97491270D01*
X150409120Y-97489746D01*
X153812048Y-94086819D01*
X153873371Y-94053334D01*
X153899729Y-94050500D01*
X156364730Y-94050500D01*
X156431769Y-94070185D01*
X156433622Y-94071399D01*
X156473447Y-94098010D01*
X156473450Y-94098011D01*
X156473453Y-94098013D01*
X156637334Y-94165894D01*
X156637336Y-94165894D01*
X156637341Y-94165896D01*
X156811304Y-94200499D01*
X156811307Y-94200500D01*
X156811309Y-94200500D01*
X156988693Y-94200500D01*
X156988694Y-94200499D01*
X157046682Y-94188964D01*
X157162658Y-94165896D01*
X157162661Y-94165894D01*
X157162666Y-94165894D01*
X157326547Y-94098013D01*
X157474035Y-93999464D01*
X157599464Y-93874035D01*
X157698013Y-93726547D01*
X157765894Y-93562666D01*
X157800500Y-93388691D01*
X157800500Y-93211309D01*
X157800500Y-93211306D01*
X157800499Y-93211304D01*
X157765896Y-93037341D01*
X157765893Y-93037332D01*
X157698016Y-92873459D01*
X157698009Y-92873446D01*
X157599464Y-92725965D01*
X157599461Y-92725961D01*
X157474038Y-92600538D01*
X157474034Y-92600535D01*
X157326553Y-92501990D01*
X157326540Y-92501983D01*
X157162667Y-92434106D01*
X157162658Y-92434103D01*
X156988694Y-92399500D01*
X156988691Y-92399500D01*
X156811309Y-92399500D01*
X156811306Y-92399500D01*
X156637341Y-92434103D01*
X156637332Y-92434106D01*
X156473452Y-92501987D01*
X156473447Y-92501989D01*
X156433622Y-92528601D01*
X156366945Y-92549480D01*
X156364730Y-92549500D01*
X153463580Y-92549500D01*
X153318592Y-92578340D01*
X153318582Y-92578343D01*
X153182011Y-92634912D01*
X153181998Y-92634919D01*
X153059084Y-92717048D01*
X153059080Y-92717051D01*
X149347807Y-96428323D01*
X149286484Y-96461808D01*
X149284319Y-96462259D01*
X149237337Y-96471604D01*
X149237331Y-96471606D01*
X149073459Y-96539483D01*
X149073446Y-96539490D01*
X148925965Y-96638035D01*
X148925961Y-96638038D01*
X148800538Y-96763461D01*
X148800535Y-96763465D01*
X148701990Y-96910946D01*
X148701983Y-96910959D01*
X148634106Y-97074832D01*
X148634103Y-97074841D01*
X148599500Y-97248804D01*
X139500500Y-97248804D01*
X139500500Y-89024500D01*
X139520185Y-88957461D01*
X139572989Y-88911706D01*
X139624500Y-88900500D01*
X160975500Y-88900500D01*
X161042539Y-88920185D01*
G37*
%TD.AperFunction*%
%TD*%
M02*
