%TF.GenerationSoftware,KiCad,Pcbnew,9.0.7*%
%TF.CreationDate,2026-02-18T17:04:01-08:00*%
%TF.ProjectId,inverter,696e7665-7274-4657-922e-6b696361645f,rev?*%
%TF.SameCoordinates,Original*%
%TF.FileFunction,Copper,L1,Top*%
%TF.FilePolarity,Positive*%
%FSLAX46Y46*%
G04 Gerber Fmt 4.6, Leading zero omitted, Abs format (unit mm)*
G04 Created by KiCad (PCBNEW 9.0.7) date 2026-02-18 17:04:01*
%MOMM*%
%LPD*%
G01*
G04 APERTURE LIST*
G04 Aperture macros list*
%AMRoundRect*
0 Rectangle with rounded corners*
0 $1 Rounding radius*
0 $2 $3 $4 $5 $6 $7 $8 $9 X,Y pos of 4 corners*
0 Add a 4 corners polygon primitive as box body*
4,1,4,$2,$3,$4,$5,$6,$7,$8,$9,$2,$3,0*
0 Add four circle primitives for the rounded corners*
1,1,$1+$1,$2,$3*
1,1,$1+$1,$4,$5*
1,1,$1+$1,$6,$7*
1,1,$1+$1,$8,$9*
0 Add four rect primitives between the rounded corners*
20,1,$1+$1,$2,$3,$4,$5,0*
20,1,$1+$1,$4,$5,$6,$7,0*
20,1,$1+$1,$6,$7,$8,$9,0*
20,1,$1+$1,$8,$9,$2,$3,0*%
G04 Aperture macros list end*
%TA.AperFunction,SMDPad,CuDef*%
%ADD10RoundRect,0.237500X0.237500X-0.300000X0.237500X0.300000X-0.237500X0.300000X-0.237500X-0.300000X0*%
%TD*%
%TA.AperFunction,SMDPad,CuDef*%
%ADD11RoundRect,0.237500X-0.300000X-0.237500X0.300000X-0.237500X0.300000X0.237500X-0.300000X0.237500X0*%
%TD*%
%TA.AperFunction,SMDPad,CuDef*%
%ADD12R,1.397000X0.431800*%
%TD*%
%TA.AperFunction,SMDPad,CuDef*%
%ADD13R,1.752600X2.946400*%
%TD*%
%TA.AperFunction,SMDPad,CuDef*%
%ADD14RoundRect,0.200000X-0.275000X0.200000X-0.275000X-0.200000X0.275000X-0.200000X0.275000X0.200000X0*%
%TD*%
%TA.AperFunction,SMDPad,CuDef*%
%ADD15C,1.500000*%
%TD*%
%TA.AperFunction,SMDPad,CuDef*%
%ADD16RoundRect,0.062500X0.062500X-0.187500X0.062500X0.187500X-0.062500X0.187500X-0.062500X-0.187500X0*%
%TD*%
%TA.AperFunction,SMDPad,CuDef*%
%ADD17R,1.600000X0.900000*%
%TD*%
%TA.AperFunction,SMDPad,CuDef*%
%ADD18RoundRect,0.237500X0.300000X0.237500X-0.300000X0.237500X-0.300000X-0.237500X0.300000X-0.237500X0*%
%TD*%
%TA.AperFunction,ViaPad*%
%ADD19C,0.800000*%
%TD*%
%TA.AperFunction,ViaPad*%
%ADD20C,0.600000*%
%TD*%
%TA.AperFunction,Conductor*%
%ADD21C,0.200000*%
%TD*%
%TA.AperFunction,Conductor*%
%ADD22C,0.500000*%
%TD*%
%TA.AperFunction,Conductor*%
%ADD23C,0.300000*%
%TD*%
%TA.AperFunction,Conductor*%
%ADD24C,0.400000*%
%TD*%
G04 APERTURE END LIST*
D10*
%TO.P,C5,1*%
%TO.N,GND*%
X149500000Y-99062500D03*
%TO.P,C5,2*%
%TO.N,Net-(U2-VOUT)*%
X149500000Y-97337500D03*
%TD*%
D11*
%TO.P,C6,1*%
%TO.N,Net-(U2-C+)*%
X144113500Y-94376000D03*
%TO.P,C6,2*%
%TO.N,Net-(U2-C-)*%
X145838500Y-94376000D03*
%TD*%
D10*
%TO.P,C7,1*%
%TO.N,GND*%
X141100000Y-98862500D03*
%TO.P,C7,2*%
%TO.N,+15V*%
X141100000Y-97137500D03*
%TD*%
D12*
%TO.P,U2,1,NC_2*%
%TO.N,unconnected-(U2-NC_2-Pad1)*%
X147260400Y-99201600D03*
%TO.P,U2,2,RT*%
%TO.N,GND*%
X147260400Y-98551359D03*
%TO.P,U2,3,NC_3*%
%TO.N,unconnected-(U2-NC_3-Pad3)*%
X147260400Y-97901119D03*
%TO.P,U2,4,VOUT*%
%TO.N,Net-(U2-VOUT)*%
X147260400Y-97250881D03*
%TO.P,U2,5,C-*%
%TO.N,Net-(U2-C-)*%
X147260400Y-96600641D03*
%TO.P,U2,6,NC_4*%
%TO.N,unconnected-(U2-NC_4-Pad6)*%
X147260400Y-95950400D03*
%TO.P,U2,7,NC_5*%
%TO.N,unconnected-(U2-NC_5-Pad7)*%
X142891600Y-95950400D03*
%TO.P,U2,8,C+*%
%TO.N,Net-(U2-C+)*%
X142891600Y-96600641D03*
%TO.P,U2,9,VIN*%
%TO.N,+15V*%
X142891600Y-97250881D03*
%TO.P,U2,10,EN*%
X142891600Y-97901119D03*
%TO.P,U2,11,MODE*%
%TO.N,GND*%
X142891600Y-98551359D03*
%TO.P,U2,12,NC*%
%TO.N,unconnected-(U2-NC-Pad12)*%
X142891600Y-99201600D03*
D13*
%TO.P,U2,13,EPAD*%
%TO.N,GND*%
X145076000Y-97576000D03*
%TD*%
D11*
%TO.P,C3,1*%
%TO.N,Net-(U1-C+)*%
X151337500Y-94400000D03*
%TO.P,C3,2*%
%TO.N,Net-(U1-C-)*%
X153062500Y-94400000D03*
%TD*%
D14*
%TO.P,R1,1*%
%TO.N,Net-(U1-VFB)*%
X154600000Y-95925000D03*
%TO.P,R1,2*%
%TO.N,Net-(U1-VOUT)*%
X154600000Y-97575000D03*
%TD*%
D15*
%TO.P,-15V,1,1*%
%TO.N,Net-(U2-VOUT)*%
X158700000Y-94300000D03*
%TD*%
%TO.P,GND,1,1*%
%TO.N,GND*%
X149200000Y-94100000D03*
%TD*%
%TO.P,+5V,1,1*%
%TO.N,+5V*%
X144400000Y-92100000D03*
%TD*%
%TO.P,+15V,1,1*%
%TO.N,+15V*%
X141600000Y-92200000D03*
%TD*%
D16*
%TO.P,U1,1,VIN*%
%TO.N,+5V*%
X151800000Y-97700000D03*
%TO.P,U1,2,GND*%
%TO.N,GND*%
X152300000Y-97700000D03*
%TO.P,U1,3,CPOUT*%
%TO.N,Net-(U1-CPOUT)*%
X152800000Y-97700000D03*
%TO.P,U1,4,VOUT*%
%TO.N,Net-(U1-VOUT)*%
X153300000Y-97700000D03*
%TO.P,U1,5,VFB*%
%TO.N,Net-(U1-VFB)*%
X153300000Y-95800000D03*
%TO.P,U1,6,EN*%
%TO.N,+5V*%
X152800000Y-95800000D03*
%TO.P,U1,7,C-*%
%TO.N,Net-(U1-C-)*%
X152300000Y-95800000D03*
%TO.P,U1,8,C+*%
%TO.N,Net-(U1-C+)*%
X151800000Y-95800000D03*
D17*
%TO.P,U1,9,PAD*%
%TO.N,GND*%
X152550000Y-96750000D03*
%TD*%
D18*
%TO.P,C2,1*%
%TO.N,Net-(U1-CPOUT)*%
X153062500Y-99100000D03*
%TO.P,C2,2*%
%TO.N,GND*%
X151337500Y-99100000D03*
%TD*%
D14*
%TO.P,R2,1*%
%TO.N,Net-(U1-VFB)*%
X156100000Y-95925000D03*
%TO.P,R2,2*%
%TO.N,GND*%
X156100000Y-97575000D03*
%TD*%
D11*
%TO.P,C4,1*%
%TO.N,Net-(U1-VOUT)*%
X154637500Y-99000000D03*
%TO.P,C4,2*%
%TO.N,GND*%
X156362500Y-99000000D03*
%TD*%
D15*
%TO.P,-5V,1,1*%
%TO.N,Net-(U1-VOUT)*%
X158800000Y-98900000D03*
%TD*%
D11*
%TO.P,C1,1*%
%TO.N,+5V*%
X154637500Y-94500000D03*
%TO.P,C1,2*%
%TO.N,GND*%
X156362500Y-94500000D03*
%TD*%
D19*
%TO.N,Net-(U2-VOUT)*%
X156900000Y-93300000D03*
X149500000Y-97337500D03*
D20*
%TO.N,GND*%
X140000000Y-100200000D03*
X139800000Y-98500000D03*
X140000000Y-91500000D03*
X140000000Y-94800000D03*
X143000000Y-93400000D03*
X146400000Y-91100000D03*
X148600000Y-91100000D03*
X151400000Y-92900000D03*
X157500000Y-95500000D03*
X142900000Y-91100000D03*
X159800000Y-97300000D03*
X160200000Y-96400000D03*
X160200000Y-100200000D03*
X158500000Y-92500000D03*
X157500000Y-97600000D03*
X154000000Y-100200000D03*
X145900000Y-93100000D03*
X152000000Y-100200000D03*
X142600000Y-100200000D03*
X144100000Y-100200000D03*
X146200000Y-100200000D03*
X147200000Y-100100000D03*
X148500000Y-100200000D03*
X147700000Y-93300000D03*
X150400000Y-100200000D03*
%TD*%
D21*
%TO.N,+5V*%
X151800000Y-97700000D02*
X150400000Y-96300000D01*
X150400000Y-96300000D02*
X150400000Y-92100000D01*
D22*
%TO.N,Net-(U2-VOUT)*%
X156900000Y-93300000D02*
X157700000Y-93300000D01*
X157700000Y-93300000D02*
X158700000Y-94300000D01*
%TO.N,Net-(U1-VOUT)*%
X158800000Y-98900000D02*
X157774000Y-99926000D01*
X157774000Y-99926000D02*
X155563500Y-99926000D01*
X155563500Y-99926000D02*
X154637500Y-99000000D01*
D23*
X154600000Y-97575000D02*
X154600000Y-98962500D01*
X154600000Y-98962500D02*
X154637500Y-99000000D01*
X153300000Y-97700000D02*
X154475000Y-97700000D01*
X154475000Y-97700000D02*
X154600000Y-97575000D01*
D24*
%TO.N,Net-(U2-VOUT)*%
X147260400Y-97250881D02*
X149413381Y-97250881D01*
X149413381Y-97250881D02*
X149500000Y-97337500D01*
D22*
%TO.N,+5V*%
X150400000Y-92100000D02*
X152280266Y-92100000D01*
X144400000Y-92100000D02*
X150400000Y-92100000D01*
X152280266Y-92100000D02*
X154637500Y-94457234D01*
X154637500Y-94457234D02*
X154637500Y-94500000D01*
%TO.N,+15V*%
X141100000Y-97137500D02*
X141230041Y-97267541D01*
X141230041Y-97267541D02*
X142258022Y-97267541D01*
X142258022Y-97267541D02*
X142874940Y-97884459D01*
X141100000Y-97137500D02*
X141137500Y-97137500D01*
X141137500Y-97137500D02*
X141267541Y-97267541D01*
X141267541Y-97267541D02*
X142891600Y-97267541D01*
X141600000Y-92200000D02*
X141100000Y-92700000D01*
X141100000Y-92700000D02*
X141100000Y-97137500D01*
D21*
%TO.N,GND*%
X149200000Y-94100000D02*
X149200000Y-95667100D01*
X149200000Y-95667100D02*
X151337500Y-97804600D01*
X151337500Y-97804600D02*
X151337500Y-99100000D01*
%TO.N,Net-(U2-C-)*%
X148476000Y-95176000D02*
X148476000Y-96283541D01*
X145838500Y-94376000D02*
X147676000Y-94376000D01*
X147676000Y-94376000D02*
X148476000Y-95176000D01*
X148158900Y-96600641D02*
X147260400Y-96600641D01*
X148476000Y-96283541D02*
X148158900Y-96600641D01*
%TO.N,Net-(U2-C+)*%
X141993100Y-96600641D02*
X142891600Y-96600641D01*
X141676000Y-95276000D02*
X141676000Y-96283541D01*
X142576000Y-94376000D02*
X141676000Y-95276000D01*
X144113500Y-94376000D02*
X142576000Y-94376000D01*
X141676000Y-96283541D02*
X141993100Y-96600641D01*
%TO.N,GND*%
X145076000Y-97576000D02*
X145000000Y-97500000D01*
X145076000Y-97576000D02*
X144100641Y-98551359D01*
X144100641Y-98551359D02*
X142891600Y-98551359D01*
X145076000Y-97576000D02*
X146051359Y-98551359D01*
X141411141Y-98551359D02*
X142891600Y-98551359D01*
X141100000Y-98862500D02*
X141411141Y-98551359D01*
X146051359Y-98551359D02*
X147260400Y-98551359D01*
X148988859Y-98551359D02*
X147260400Y-98551359D01*
X149500000Y-99062500D02*
X148988859Y-98551359D01*
X152550000Y-96750000D02*
X155275000Y-96750000D01*
X151337500Y-99100000D02*
X152300000Y-98137500D01*
X156100000Y-97575000D02*
X156100000Y-98737500D01*
X152300000Y-98137500D02*
X152300000Y-97700000D01*
X155275000Y-96750000D02*
X156100000Y-97575000D01*
X152300000Y-97000000D02*
X152550000Y-96750000D01*
X156876000Y-96799000D02*
X156100000Y-97575000D01*
X152300000Y-97700000D02*
X152300000Y-97000000D01*
X156876000Y-95013500D02*
X156876000Y-96799000D01*
X156100000Y-98737500D02*
X156362500Y-99000000D01*
X156362500Y-94500000D02*
X156876000Y-95013500D01*
%TO.N,+5V*%
X152800000Y-95534202D02*
X153158202Y-95176000D01*
X153961500Y-95176000D02*
X154637500Y-94500000D01*
X153158202Y-95176000D02*
X153961500Y-95176000D01*
X152800000Y-95800000D02*
X152800000Y-95534202D01*
%TO.N,Net-(U1-CPOUT)*%
X152800000Y-98837500D02*
X152800000Y-97700000D01*
X153062500Y-99100000D02*
X152800000Y-98837500D01*
%TO.N,Net-(U1-C-)*%
X153062500Y-94400000D02*
X152300000Y-95162500D01*
X152300000Y-95162500D02*
X152300000Y-95800000D01*
%TO.N,Net-(U1-C+)*%
X151337500Y-95337500D02*
X151800000Y-95800000D01*
X151337500Y-94400000D02*
X151337500Y-95337500D01*
%TO.N,Net-(U1-VFB)*%
X153300000Y-95800000D02*
X154475000Y-95800000D01*
X154600000Y-95925000D02*
X156100000Y-95925000D01*
X154475000Y-95800000D02*
X154600000Y-95925000D01*
%TD*%
%TA.AperFunction,Conductor*%
%TO.N,GND*%
G36*
X149766855Y-95306361D02*
G01*
X149797684Y-95369062D01*
X149799500Y-95390208D01*
X149799500Y-96175500D01*
X149779815Y-96242539D01*
X149727011Y-96288294D01*
X149675500Y-96299500D01*
X149213330Y-96299500D01*
X149213303Y-96299502D01*
X149213082Y-96299525D01*
X149213034Y-96299516D01*
X149210169Y-96299662D01*
X149210134Y-96298976D01*
X149144391Y-96286744D01*
X149093514Y-96238855D01*
X149076500Y-96176165D01*
X149076500Y-95474000D01*
X149096185Y-95406961D01*
X149148989Y-95361206D01*
X149200500Y-95350000D01*
X149298382Y-95350000D01*
X149492703Y-95319221D01*
X149637181Y-95272277D01*
X149707022Y-95270281D01*
X149766855Y-95306361D01*
G37*
%TD.AperFunction*%
%TA.AperFunction,Conductor*%
G36*
X148478565Y-92870185D02*
G01*
X148524320Y-92922989D01*
X148534264Y-92992147D01*
X148510896Y-93043314D01*
X148509872Y-93056320D01*
X149289095Y-93835542D01*
X149322580Y-93896865D01*
X149317596Y-93966556D01*
X149289095Y-94010904D01*
X149110904Y-94189095D01*
X149049581Y-94222580D01*
X148979889Y-94217596D01*
X148935542Y-94189095D01*
X148156320Y-93409872D01*
X148156320Y-93409873D01*
X148130902Y-93444859D01*
X148130899Y-93444863D01*
X148041582Y-93620160D01*
X148008566Y-93721772D01*
X147969128Y-93779447D01*
X147904769Y-93806645D01*
X147858542Y-93803228D01*
X147818883Y-93792601D01*
X147755057Y-93775499D01*
X147596943Y-93775499D01*
X147589347Y-93775499D01*
X147589331Y-93775500D01*
X146850901Y-93775500D01*
X146783862Y-93755815D01*
X146745362Y-93716596D01*
X146721340Y-93677650D01*
X146599351Y-93555661D01*
X146599350Y-93555660D01*
X146452516Y-93465092D01*
X146288753Y-93410826D01*
X146288751Y-93410825D01*
X146187678Y-93400500D01*
X145489330Y-93400500D01*
X145489312Y-93400501D01*
X145388247Y-93410825D01*
X145224484Y-93465092D01*
X145224481Y-93465093D01*
X145077648Y-93555661D01*
X145063681Y-93569629D01*
X145002358Y-93603114D01*
X144932666Y-93598130D01*
X144905365Y-93583863D01*
X144896203Y-93577513D01*
X144874350Y-93555660D01*
X144786408Y-93501417D01*
X144783687Y-93499531D01*
X144763743Y-93474824D01*
X144742501Y-93451207D01*
X144741951Y-93447827D01*
X144739801Y-93445164D01*
X144736380Y-93413597D01*
X144731278Y-93382244D01*
X144732642Y-93379103D01*
X144732274Y-93375701D01*
X144746463Y-93347295D01*
X144759122Y-93318162D01*
X144761983Y-93316226D01*
X144763497Y-93313196D01*
X144787976Y-93298643D01*
X144816001Y-93279686D01*
X144880025Y-93258884D01*
X145055405Y-93169524D01*
X145214646Y-93053828D01*
X145353828Y-92914646D01*
X145363297Y-92901612D01*
X145418628Y-92858948D01*
X145463614Y-92850500D01*
X148411526Y-92850500D01*
X148478565Y-92870185D01*
G37*
%TD.AperFunction*%
%TA.AperFunction,Conductor*%
G36*
X151985075Y-92870185D02*
G01*
X152005717Y-92886819D01*
X152260015Y-93141117D01*
X152436248Y-93317349D01*
X152446123Y-93335434D01*
X152460012Y-93350661D01*
X152462529Y-93365480D01*
X152469733Y-93378672D01*
X152468263Y-93399226D01*
X152471715Y-93419544D01*
X152465821Y-93433371D01*
X152464749Y-93448363D01*
X152452400Y-93464859D01*
X152444319Y-93483819D01*
X152425052Y-93501391D01*
X152422878Y-93504297D01*
X152418897Y-93507006D01*
X152418243Y-93507603D01*
X152415972Y-93509144D01*
X152301650Y-93579660D01*
X152279382Y-93601927D01*
X152269676Y-93608521D01*
X152203160Y-93629908D01*
X152135640Y-93611938D01*
X152112319Y-93593629D01*
X152098351Y-93579661D01*
X152098350Y-93579660D01*
X151971456Y-93501391D01*
X151951518Y-93489093D01*
X151951513Y-93489091D01*
X151948767Y-93488181D01*
X151787753Y-93434826D01*
X151787751Y-93434825D01*
X151686684Y-93424500D01*
X151686677Y-93424500D01*
X151124500Y-93424500D01*
X151057461Y-93404815D01*
X151011706Y-93352011D01*
X151000500Y-93300500D01*
X151000500Y-92974500D01*
X151020185Y-92907461D01*
X151072989Y-92861706D01*
X151124500Y-92850500D01*
X151918036Y-92850500D01*
X151985075Y-92870185D01*
G37*
%TD.AperFunction*%
%TA.AperFunction,Conductor*%
G36*
X161042539Y-88920185D02*
G01*
X161088294Y-88972989D01*
X161099500Y-89024500D01*
X161099500Y-101175500D01*
X161079815Y-101242539D01*
X161027011Y-101288294D01*
X160975500Y-101299500D01*
X139624500Y-101299500D01*
X139557461Y-101279815D01*
X139511706Y-101227011D01*
X139500500Y-101175500D01*
X139500500Y-99211654D01*
X140125001Y-99211654D01*
X140135319Y-99312652D01*
X140189546Y-99476300D01*
X140189551Y-99476311D01*
X140280052Y-99623034D01*
X140280055Y-99623038D01*
X140401961Y-99744944D01*
X140401965Y-99744947D01*
X140548688Y-99835448D01*
X140548699Y-99835453D01*
X140712347Y-99889680D01*
X140813352Y-99899999D01*
X140850000Y-99899999D01*
X140850000Y-99112500D01*
X140125001Y-99112500D01*
X140125001Y-99211654D01*
X139500500Y-99211654D01*
X139500500Y-96788315D01*
X140124500Y-96788315D01*
X140124500Y-97486669D01*
X140124501Y-97486687D01*
X140134825Y-97587752D01*
X140189092Y-97751515D01*
X140189093Y-97751518D01*
X140279661Y-97898351D01*
X140293982Y-97912672D01*
X140327467Y-97973995D01*
X140322483Y-98043687D01*
X140293985Y-98088032D01*
X140280052Y-98101965D01*
X140189551Y-98248688D01*
X140189546Y-98248699D01*
X140135319Y-98412347D01*
X140125000Y-98513345D01*
X140125000Y-98612500D01*
X140976000Y-98612500D01*
X141043039Y-98632185D01*
X141088794Y-98684989D01*
X141100000Y-98736500D01*
X141100000Y-98862500D01*
X141226000Y-98862500D01*
X141293039Y-98882185D01*
X141338794Y-98934989D01*
X141350000Y-98986500D01*
X141350000Y-99899999D01*
X141386640Y-99899999D01*
X141386654Y-99899998D01*
X141487652Y-99889680D01*
X141651300Y-99835453D01*
X141651307Y-99835450D01*
X141724721Y-99790167D01*
X141792113Y-99771726D01*
X141858777Y-99792648D01*
X141864129Y-99796437D01*
X141950769Y-99861296D01*
X141950770Y-99861296D01*
X141950771Y-99861297D01*
X142085617Y-99911591D01*
X142085616Y-99911591D01*
X142092544Y-99912335D01*
X142145227Y-99918000D01*
X143637972Y-99917999D01*
X143697583Y-99911591D01*
X143832431Y-99861296D01*
X143947646Y-99775046D01*
X144033896Y-99659831D01*
X144033898Y-99659826D01*
X144045072Y-99629868D01*
X144086943Y-99573934D01*
X144152407Y-99549516D01*
X144161254Y-99549200D01*
X144826000Y-99549200D01*
X144826000Y-95602800D01*
X144161254Y-95602800D01*
X144140004Y-95596560D01*
X144117914Y-95594979D01*
X144107134Y-95586908D01*
X144094215Y-95583115D01*
X144079713Y-95566379D01*
X144061983Y-95553105D01*
X144051374Y-95533674D01*
X144048460Y-95530311D01*
X144045070Y-95522127D01*
X144043839Y-95518826D01*
X144038858Y-95449134D01*
X144072347Y-95387813D01*
X144133672Y-95354331D01*
X144160023Y-95351499D01*
X144462670Y-95351499D01*
X144462676Y-95351499D01*
X144563753Y-95341174D01*
X144727516Y-95286908D01*
X144874350Y-95196340D01*
X144888319Y-95182371D01*
X144949642Y-95148886D01*
X145019334Y-95153870D01*
X145063681Y-95182371D01*
X145077650Y-95196340D01*
X145224484Y-95286908D01*
X145388247Y-95341174D01*
X145489323Y-95351500D01*
X145991976Y-95351499D01*
X146021406Y-95360140D01*
X146051368Y-95366648D01*
X146054612Y-95369890D01*
X146059015Y-95371183D01*
X146079098Y-95394360D01*
X146100789Y-95416037D01*
X146101765Y-95420519D01*
X146104770Y-95423987D01*
X146109134Y-95454339D01*
X146115663Y-95484305D01*
X146114327Y-95490455D01*
X146114714Y-95493146D01*
X146108172Y-95518795D01*
X146106942Y-95522096D01*
X146065088Y-95578043D01*
X145999632Y-95602481D01*
X145990746Y-95602800D01*
X145326000Y-95602800D01*
X145326000Y-99549200D01*
X145990746Y-99549200D01*
X146057785Y-99568885D01*
X146103540Y-99621689D01*
X146106927Y-99629865D01*
X146118104Y-99659832D01*
X146118105Y-99659834D01*
X146204352Y-99775044D01*
X146204355Y-99775047D01*
X146319564Y-99861293D01*
X146319571Y-99861297D01*
X146454417Y-99911591D01*
X146454416Y-99911591D01*
X146461344Y-99912335D01*
X146514027Y-99918000D01*
X148006772Y-99917999D01*
X148066383Y-99911591D01*
X148201231Y-99861296D01*
X148316446Y-99775046D01*
X148390399Y-99676257D01*
X148446331Y-99634388D01*
X148516023Y-99629404D01*
X148577346Y-99662889D01*
X148595202Y-99685472D01*
X148680054Y-99823037D01*
X148801961Y-99944944D01*
X148801965Y-99944947D01*
X148948688Y-100035448D01*
X148948699Y-100035453D01*
X149112347Y-100089680D01*
X149213352Y-100099999D01*
X149250000Y-100099999D01*
X149750000Y-100099999D01*
X149786640Y-100099999D01*
X149786654Y-100099998D01*
X149887652Y-100089680D01*
X150051300Y-100035453D01*
X150051311Y-100035448D01*
X150198034Y-99944947D01*
X150198038Y-99944944D01*
X150312319Y-99830664D01*
X150373642Y-99797179D01*
X150443334Y-99802163D01*
X150487681Y-99830664D01*
X150576961Y-99919944D01*
X150576965Y-99919947D01*
X150723688Y-100010448D01*
X150723699Y-100010453D01*
X150887347Y-100064680D01*
X150988351Y-100074999D01*
X151087500Y-100074998D01*
X151087500Y-99350000D01*
X150258862Y-99350000D01*
X150191823Y-99330315D01*
X150171181Y-99313681D01*
X150170000Y-99312500D01*
X149750000Y-99312500D01*
X149750000Y-100099999D01*
X149250000Y-100099999D01*
X149250000Y-99186500D01*
X149269685Y-99119461D01*
X149322489Y-99073706D01*
X149374000Y-99062500D01*
X149500000Y-99062500D01*
X149500000Y-98936500D01*
X149519685Y-98869461D01*
X149572489Y-98823706D01*
X149624000Y-98812500D01*
X150516138Y-98812500D01*
X150583177Y-98832185D01*
X150603819Y-98848819D01*
X150605000Y-98850000D01*
X151213500Y-98850000D01*
X151280539Y-98869685D01*
X151326294Y-98922489D01*
X151337500Y-98974000D01*
X151337500Y-99100000D01*
X151463500Y-99100000D01*
X151530539Y-99119685D01*
X151576294Y-99172489D01*
X151587500Y-99224000D01*
X151587500Y-100074999D01*
X151686640Y-100074999D01*
X151686654Y-100074998D01*
X151787652Y-100064680D01*
X151951300Y-100010453D01*
X151951311Y-100010448D01*
X152098035Y-99919947D01*
X152111960Y-99906021D01*
X152173282Y-99872533D01*
X152242973Y-99877514D01*
X152287327Y-99906017D01*
X152301650Y-99920340D01*
X152448484Y-100010908D01*
X152612247Y-100065174D01*
X152713323Y-100075500D01*
X153411676Y-100075499D01*
X153411684Y-100075498D01*
X153411687Y-100075498D01*
X153467030Y-100069844D01*
X153512753Y-100065174D01*
X153676516Y-100010908D01*
X153823350Y-99920340D01*
X153836203Y-99907485D01*
X153897525Y-99874001D01*
X153967216Y-99878983D01*
X153988980Y-99889625D01*
X154023484Y-99910908D01*
X154187247Y-99965174D01*
X154288323Y-99975500D01*
X154500268Y-99975499D01*
X154567308Y-99995183D01*
X154587950Y-100011818D01*
X155085086Y-100508954D01*
X155107922Y-100524211D01*
X155158770Y-100558186D01*
X155208005Y-100591084D01*
X155264580Y-100614518D01*
X155344588Y-100647659D01*
X155460741Y-100670763D01*
X155479968Y-100674587D01*
X155489581Y-100676500D01*
X155489582Y-100676500D01*
X157847920Y-100676500D01*
X157945462Y-100657096D01*
X157992913Y-100647658D01*
X158129495Y-100591084D01*
X158178729Y-100558186D01*
X158252416Y-100508952D01*
X158578597Y-100182768D01*
X158639916Y-100149286D01*
X158685673Y-100147980D01*
X158701583Y-100150500D01*
X158701584Y-100150500D01*
X158898422Y-100150500D01*
X159092826Y-100119709D01*
X159280025Y-100058884D01*
X159455405Y-99969524D01*
X159614646Y-99853828D01*
X159753828Y-99714646D01*
X159869524Y-99555405D01*
X159958884Y-99380025D01*
X160019709Y-99192826D01*
X160022930Y-99172489D01*
X160050500Y-98998422D01*
X160050500Y-98801577D01*
X160019709Y-98607173D01*
X159968802Y-98450499D01*
X159958884Y-98419975D01*
X159958882Y-98419972D01*
X159958882Y-98419970D01*
X159898595Y-98301650D01*
X159869524Y-98244595D01*
X159753828Y-98085354D01*
X159614646Y-97946172D01*
X159455405Y-97830476D01*
X159444658Y-97825000D01*
X159280029Y-97741117D01*
X159092826Y-97680290D01*
X158898422Y-97649500D01*
X158898417Y-97649500D01*
X158701583Y-97649500D01*
X158701578Y-97649500D01*
X158507173Y-97680290D01*
X158319970Y-97741117D01*
X158144594Y-97830476D01*
X158057341Y-97893870D01*
X157985354Y-97946172D01*
X157985352Y-97946174D01*
X157985351Y-97946174D01*
X157846174Y-98085351D01*
X157846174Y-98085352D01*
X157846172Y-98085354D01*
X157817367Y-98125001D01*
X157730476Y-98244594D01*
X157641118Y-98419969D01*
X157601846Y-98540833D01*
X157562407Y-98598508D01*
X157498048Y-98625705D01*
X157429202Y-98613790D01*
X157377727Y-98566545D01*
X157366209Y-98541516D01*
X157335454Y-98448701D01*
X157335448Y-98448688D01*
X157244947Y-98301965D01*
X157244944Y-98301961D01*
X157123037Y-98180054D01*
X157086643Y-98157606D01*
X157039919Y-98105658D01*
X157028698Y-98036695D01*
X157033356Y-98015178D01*
X157068590Y-97902106D01*
X157075000Y-97831572D01*
X157075000Y-97825000D01*
X156224000Y-97825000D01*
X156156961Y-97805315D01*
X156111206Y-97752511D01*
X156100000Y-97701000D01*
X156100000Y-97449000D01*
X156119685Y-97381961D01*
X156172489Y-97336206D01*
X156224000Y-97325000D01*
X157074999Y-97325000D01*
X157074999Y-97318417D01*
X157068591Y-97247897D01*
X157068590Y-97247892D01*
X157018018Y-97085603D01*
X156930072Y-96940122D01*
X156827984Y-96838034D01*
X156794499Y-96776711D01*
X156799483Y-96707019D01*
X156827983Y-96662673D01*
X156930472Y-96560185D01*
X157018478Y-96414606D01*
X157069086Y-96252196D01*
X157075500Y-96181616D01*
X157075500Y-95668384D01*
X157069086Y-95597804D01*
X157033794Y-95484548D01*
X157032644Y-95414690D01*
X157069444Y-95355297D01*
X157087085Y-95342121D01*
X157123033Y-95319948D01*
X157123038Y-95319944D01*
X157244944Y-95198038D01*
X157244947Y-95198034D01*
X157335448Y-95051311D01*
X157335454Y-95051298D01*
X157377572Y-94924194D01*
X157417344Y-94866748D01*
X157481860Y-94839925D01*
X157550636Y-94852240D01*
X157601836Y-94899782D01*
X157605763Y-94906903D01*
X157630474Y-94955403D01*
X157665234Y-95003246D01*
X157746172Y-95114646D01*
X157885354Y-95253828D01*
X158044595Y-95369524D01*
X158085190Y-95390208D01*
X158219970Y-95458882D01*
X158219972Y-95458882D01*
X158219975Y-95458884D01*
X158317140Y-95490455D01*
X158407173Y-95519709D01*
X158601578Y-95550500D01*
X158601583Y-95550500D01*
X158798422Y-95550500D01*
X158992826Y-95519709D01*
X158995639Y-95518795D01*
X159180025Y-95458884D01*
X159355405Y-95369524D01*
X159514646Y-95253828D01*
X159653828Y-95114646D01*
X159769524Y-94955405D01*
X159858884Y-94780025D01*
X159919709Y-94592826D01*
X159950500Y-94398422D01*
X159950500Y-94201577D01*
X159919709Y-94007173D01*
X159883867Y-93896865D01*
X159858884Y-93819975D01*
X159858882Y-93819972D01*
X159858882Y-93819970D01*
X159786366Y-93677650D01*
X159769524Y-93644595D01*
X159653828Y-93485354D01*
X159514646Y-93346172D01*
X159355405Y-93230476D01*
X159335840Y-93220507D01*
X159180029Y-93141117D01*
X158992826Y-93080290D01*
X158798422Y-93049500D01*
X158798417Y-93049500D01*
X158601583Y-93049500D01*
X158585672Y-93052020D01*
X158516378Y-93043064D01*
X158478596Y-93017229D01*
X158178416Y-92717048D01*
X158178415Y-92717047D01*
X158178414Y-92717046D01*
X158104729Y-92667812D01*
X158104729Y-92667813D01*
X158055491Y-92634913D01*
X157918917Y-92578343D01*
X157918907Y-92578340D01*
X157773920Y-92549500D01*
X157773918Y-92549500D01*
X157435270Y-92549500D01*
X157368231Y-92529815D01*
X157366378Y-92528601D01*
X157326552Y-92501989D01*
X157326547Y-92501987D01*
X157162667Y-92434106D01*
X157162658Y-92434103D01*
X156988694Y-92399500D01*
X156988691Y-92399500D01*
X156811309Y-92399500D01*
X156811306Y-92399500D01*
X156637341Y-92434103D01*
X156637332Y-92434106D01*
X156473459Y-92501983D01*
X156473446Y-92501990D01*
X156325965Y-92600535D01*
X156325961Y-92600538D01*
X156200538Y-92725961D01*
X156200535Y-92725965D01*
X156101990Y-92873446D01*
X156101983Y-92873459D01*
X156034106Y-93037332D01*
X156034103Y-93037341D01*
X155999500Y-93211304D01*
X155999500Y-93388694D01*
X156000103Y-93391726D01*
X155999958Y-93393343D01*
X156000097Y-93394754D01*
X155999829Y-93394780D01*
X155993871Y-93461317D01*
X155951004Y-93516491D01*
X155917488Y-93533615D01*
X155748699Y-93589546D01*
X155748688Y-93589551D01*
X155601965Y-93680052D01*
X155588032Y-93693985D01*
X155526708Y-93727468D01*
X155457016Y-93722482D01*
X155412672Y-93693982D01*
X155398351Y-93679661D01*
X155398350Y-93679660D01*
X155288555Y-93611938D01*
X155251518Y-93589093D01*
X155251513Y-93589091D01*
X155223052Y-93579660D01*
X155087753Y-93534826D01*
X155087751Y-93534825D01*
X154986684Y-93524500D01*
X154986677Y-93524500D01*
X154817495Y-93524500D01*
X154750456Y-93504815D01*
X154729814Y-93488181D01*
X152758687Y-91517052D01*
X152758680Y-91517046D01*
X152684995Y-91467812D01*
X152684995Y-91467813D01*
X152635757Y-91434913D01*
X152499183Y-91378343D01*
X152499173Y-91378340D01*
X152354186Y-91349500D01*
X152354184Y-91349500D01*
X150473918Y-91349500D01*
X145463614Y-91349500D01*
X145396575Y-91329815D01*
X145363297Y-91298387D01*
X145353828Y-91285354D01*
X145214648Y-91146174D01*
X145214646Y-91146172D01*
X145055405Y-91030476D01*
X144880029Y-90941117D01*
X144692826Y-90880290D01*
X144498422Y-90849500D01*
X144498417Y-90849500D01*
X144301583Y-90849500D01*
X144301578Y-90849500D01*
X144107173Y-90880290D01*
X143919970Y-90941117D01*
X143744594Y-91030476D01*
X143653741Y-91096485D01*
X143585354Y-91146172D01*
X143585352Y-91146174D01*
X143585351Y-91146174D01*
X143446174Y-91285351D01*
X143446174Y-91285352D01*
X143446172Y-91285354D01*
X143436703Y-91298387D01*
X143330476Y-91444594D01*
X143241117Y-91619970D01*
X143180290Y-91807173D01*
X143149500Y-92001577D01*
X143149500Y-92198422D01*
X143180290Y-92392826D01*
X143241117Y-92580029D01*
X143330476Y-92755405D01*
X143446172Y-92914646D01*
X143585354Y-93053828D01*
X143704784Y-93140600D01*
X143744596Y-93169525D01*
X143750500Y-93172533D01*
X143801296Y-93220507D01*
X143818092Y-93288327D01*
X143795555Y-93354463D01*
X143740841Y-93397915D01*
X143706808Y-93406376D01*
X143663246Y-93410826D01*
X143499484Y-93465092D01*
X143499481Y-93465093D01*
X143352648Y-93555661D01*
X143230659Y-93677650D01*
X143206638Y-93716596D01*
X143154690Y-93763321D01*
X143101099Y-93775500D01*
X142655057Y-93775500D01*
X142496942Y-93775500D01*
X142344215Y-93816423D01*
X142344214Y-93816423D01*
X142344212Y-93816424D01*
X142344209Y-93816425D01*
X142302647Y-93840422D01*
X142302645Y-93840423D01*
X142207290Y-93895475D01*
X142207282Y-93895481D01*
X142062181Y-94040583D01*
X142000858Y-94074068D01*
X141931166Y-94069084D01*
X141875233Y-94027212D01*
X141850816Y-93961748D01*
X141850500Y-93952902D01*
X141850500Y-93523552D01*
X141870185Y-93456513D01*
X141922989Y-93410758D01*
X141936171Y-93405625D01*
X142080025Y-93358884D01*
X142255405Y-93269524D01*
X142414646Y-93153828D01*
X142553828Y-93014646D01*
X142669524Y-92855405D01*
X142758884Y-92680025D01*
X142819709Y-92492826D01*
X142829010Y-92434103D01*
X142850500Y-92298422D01*
X142850500Y-92101577D01*
X142819709Y-91907173D01*
X142787217Y-91807174D01*
X142758884Y-91719975D01*
X142758882Y-91719972D01*
X142758882Y-91719970D01*
X142669523Y-91544594D01*
X142553828Y-91385354D01*
X142414646Y-91246172D01*
X142255405Y-91130476D01*
X142080029Y-91041117D01*
X141892826Y-90980290D01*
X141698422Y-90949500D01*
X141698417Y-90949500D01*
X141501583Y-90949500D01*
X141501578Y-90949500D01*
X141307173Y-90980290D01*
X141119970Y-91041117D01*
X140944594Y-91130476D01*
X140853741Y-91196485D01*
X140785354Y-91246172D01*
X140785352Y-91246174D01*
X140785351Y-91246174D01*
X140646174Y-91385351D01*
X140646174Y-91385352D01*
X140646172Y-91385354D01*
X140610165Y-91434913D01*
X140530476Y-91544594D01*
X140441117Y-91719970D01*
X140380290Y-91907173D01*
X140349500Y-92101577D01*
X140349500Y-92298422D01*
X140374927Y-92458966D01*
X140374071Y-92502555D01*
X140349500Y-92626079D01*
X140349500Y-96255448D01*
X140329815Y-96322487D01*
X140313181Y-96343129D01*
X140279661Y-96376648D01*
X140189093Y-96523481D01*
X140189091Y-96523486D01*
X140180140Y-96550499D01*
X140134826Y-96687247D01*
X140134826Y-96687248D01*
X140134825Y-96687248D01*
X140124500Y-96788315D01*
X139500500Y-96788315D01*
X139500500Y-89024500D01*
X139520185Y-88957461D01*
X139572989Y-88911706D01*
X139624500Y-88900500D01*
X160975500Y-88900500D01*
X161042539Y-88920185D01*
G37*
%TD.AperFunction*%
%TD*%
M02*
